M48
; DRILL file {KiCad 5.1.9+dfsg1-1} date Thu Jan 20 14:33:42 2022
; FORMAT={-:-/ absolute / inch / decimal}
; #@! TF.CreationDate,2022-01-20T14:33:42+01:00
; #@! TF.GenerationSoftware,Kicad,Pcbnew,5.1.9+dfsg1-1
; #@! TF.FileFunction,Plated,1,2,PTH
FMAT,2
INCH
T1C0.0157
T2C0.0295
T3C0.0394
T4C0.0472
T5C0.0551
T6C0.0787
%
G90
G05
T1
X5.802Y-3.1591
X5.8898Y-3.2862
X6.139Y-3.6732
X6.2244Y-5.0039
X6.3146Y-3.4839
X6.3594Y-3.9299
X6.5984Y-4.2283
X6.6008Y-4.8004
X6.6457Y-4.2283
X6.6681Y-4.6236
X6.6744Y-4.4661
X6.6929Y-4.2283
X6.7465Y-4.2283
X6.7583Y-5.3728
X6.8031Y-4.2283
X6.9421Y-4.7118
X6.9618Y-4.9394
X6.9677Y-4.7476
X7.0787Y-3.7953
X7.0953Y-4.5862
X7.1181Y-4.7165
X7.1343Y-4.6795
X7.1347Y-4.592
T2
X6.6398Y-3.8366
X6.6898Y-3.8366
X6.7398Y-3.8366
T3
X5.5043Y-3.2232
X5.5043Y-3.3232
X5.5043Y-3.4232
X5.5043Y-3.5232
X5.5043Y-3.6232
X5.5043Y-3.7232
X5.6043Y-3.2232
X5.6043Y-3.3232
X5.6043Y-3.4232
X5.6043Y-3.5232
X5.6043Y-3.6232
X5.6043Y-3.7232
X5.7319Y-4.0484
X5.7319Y-4.1484
X5.7319Y-4.2484
X5.7319Y-4.3484
X5.7319Y-4.4484
X5.7319Y-4.5484
X5.7319Y-4.6484
X5.7319Y-4.7484
X5.7319Y-4.8484
X5.7319Y-4.9484
X5.7319Y-5.0484
X5.7319Y-5.1484
X5.7319Y-5.2484
X5.7319Y-5.3484
X5.7319Y-5.4484
X5.9291Y-5.748
X6.1969Y-5.748
X6.3319Y-4.0484
X6.3319Y-4.1484
X6.3319Y-4.2484
X6.3319Y-4.3484
X6.3319Y-4.4484
X6.3319Y-4.5484
X6.3319Y-4.6484
X6.3319Y-4.7484
X6.3319Y-4.8484
X6.3319Y-4.9484
X6.3319Y-5.0484
X6.3319Y-5.1484
X6.3319Y-5.2484
X6.3319Y-5.3484
X6.3319Y-5.4484
X6.7246Y-3.2164
X6.725Y-3.4115
X7.2496Y-2.75
X7.3496Y-2.75
X8.0435Y-2.9879
X8.0443Y-3.5965
T4
X6.8787Y-5.1024
X6.926Y-4.0945
X7.0787Y-5.1024
X7.126Y-4.0945
T5
X7.4298Y-4.2113
X7.4384Y-5.1491
X7.5276Y-4.0157
X7.5276Y-4.4094
X7.5362Y-4.9535
X7.5362Y-5.3472
X7.626Y-3.9173
X7.626Y-4.2126
X7.626Y-4.5079
X7.6346Y-4.8551
X7.6346Y-5.1504
X7.6346Y-5.4457
X8.0197Y-4.0157
X8.0197Y-4.4094
X8.0283Y-4.9535
X8.0283Y-5.3472
T6
X4.1245Y-2.7997
X4.1267Y-5.646
X4.914Y-5.647
X4.9143Y-2.8012
T0
M30
