G04 #@! TF.GenerationSoftware,KiCad,Pcbnew,5.1.9+dfsg1-1*
G04 #@! TF.CreationDate,2022-01-20T14:38:29+01:00*
G04 #@! TF.ProjectId,piano_pcb,7069616e-6f5f-4706-9362-2e6b69636164,rev?*
G04 #@! TF.SameCoordinates,Original*
G04 #@! TF.FileFunction,Soldermask,Bot*
G04 #@! TF.FilePolarity,Negative*
%FSLAX46Y46*%
G04 Gerber Fmt 4.6, Leading zero omitted, Abs format (unit mm)*
G04 Created by KiCad (PCBNEW 5.1.9+dfsg1-1) date 2022-01-20 14:38:29*
%MOMM*%
%LPD*%
G01*
G04 APERTURE LIST*
%ADD10O,1.700000X1.700000*%
%ADD11R,1.700000X1.700000*%
%ADD12C,2.500000*%
%ADD13C,3.000000*%
%ADD14C,1.700000*%
%ADD15C,2.000000*%
%ADD16C,2.400000*%
%ADD17O,2.400000X2.400000*%
%ADD18R,3.500000X3.500000*%
%ADD19C,3.500000*%
%ADD20O,1.050000X1.500000*%
%ADD21R,1.050000X1.500000*%
G04 APERTURE END LIST*
D10*
G04 #@! TO.C,J3*
X142350000Y-94570000D03*
X139810000Y-94570000D03*
X142350000Y-92030000D03*
X139810000Y-92030000D03*
X142350000Y-89490000D03*
X139810000Y-89490000D03*
X142350000Y-86950000D03*
X139810000Y-86950000D03*
X142350000Y-84410000D03*
X139810000Y-84410000D03*
X142350000Y-81870000D03*
D11*
X139810000Y-81870000D03*
G04 #@! TD*
D10*
G04 #@! TO.C,J6*
X184140000Y-69850000D03*
D11*
X186680000Y-69850000D03*
G04 #@! TD*
D12*
G04 #@! TO.C,J2*
X188936520Y-130786980D03*
X203920000Y-135820000D03*
X203920000Y-125820000D03*
X191420000Y-135820000D03*
X193920000Y-123320000D03*
X193920000Y-130820000D03*
X191420000Y-125820000D03*
X193920000Y-138320000D03*
G04 #@! TD*
G04 #@! TO.C,J1*
X188716520Y-106966980D03*
X203700000Y-112000000D03*
X203700000Y-102000000D03*
X191200000Y-112000000D03*
X193700000Y-99500000D03*
X193700000Y-107000000D03*
X191200000Y-102000000D03*
X193700000Y-114500000D03*
G04 #@! TD*
D13*
G04 #@! TO.C,U2*
X170805840Y-81695320D03*
X170816000Y-86650860D03*
D12*
X204326220Y-91349860D03*
X204305900Y-75891420D03*
G04 #@! TD*
D10*
G04 #@! TO.C,J4*
X160830000Y-102830000D03*
X160830000Y-105370000D03*
X160830000Y-107910000D03*
X160830000Y-110450000D03*
X160830000Y-112990000D03*
X160830000Y-115530000D03*
X160830000Y-118070000D03*
X160830000Y-120610000D03*
X160830000Y-123150000D03*
X160830000Y-125690000D03*
X160830000Y-128230000D03*
X160830000Y-130770000D03*
X160830000Y-133310000D03*
X160830000Y-135850000D03*
D14*
X160830000Y-138390000D03*
D10*
X145590000Y-130770000D03*
X145590000Y-138390000D03*
D14*
X145590000Y-102830000D03*
D10*
X145590000Y-105370000D03*
X145590000Y-107910000D03*
X145590000Y-110450000D03*
X145590000Y-112990000D03*
X145590000Y-135850000D03*
X145590000Y-115530000D03*
X145590000Y-128230000D03*
X145590000Y-125690000D03*
X145590000Y-118070000D03*
X145590000Y-120610000D03*
X145590000Y-123150000D03*
X145590000Y-133310000D03*
G04 #@! TD*
D15*
G04 #@! TO.C,TP2*
X157400000Y-146000000D03*
G04 #@! TD*
G04 #@! TO.C,TP1*
X150600000Y-146000000D03*
G04 #@! TD*
D13*
G04 #@! TO.C,H1*
X202000000Y-145760000D03*
G04 #@! TD*
G04 #@! TO.C,H2*
X201830000Y-69760000D03*
G04 #@! TD*
G04 #@! TO.C,H3*
X141000000Y-70000000D03*
G04 #@! TD*
G04 #@! TO.C,H4*
X140170000Y-146000000D03*
G04 #@! TD*
D16*
G04 #@! TO.C,R2*
X179800000Y-129600000D03*
D17*
X174720000Y-129600000D03*
G04 #@! TD*
G04 #@! TO.C,R3*
X175920000Y-104000000D03*
D16*
X181000000Y-104000000D03*
G04 #@! TD*
D18*
G04 #@! TO.C,U3*
X104819380Y-143408840D03*
D19*
X124816800Y-143434240D03*
X104763500Y-71112820D03*
X124824420Y-71150920D03*
G04 #@! TD*
D20*
G04 #@! TO.C,U4*
X169920000Y-97450000D03*
X171190000Y-97450000D03*
D21*
X168650000Y-97450000D03*
G04 #@! TD*
M02*
