G04 #@! TF.GenerationSoftware,KiCad,Pcbnew,5.1.9+dfsg1-1*
G04 #@! TF.CreationDate,2022-01-20T14:38:29+01:00*
G04 #@! TF.ProjectId,piano_pcb,7069616e-6f5f-4706-9362-2e6b69636164,rev?*
G04 #@! TF.SameCoordinates,Original*
G04 #@! TF.FileFunction,Copper,L1,Top*
G04 #@! TF.FilePolarity,Positive*
%FSLAX46Y46*%
G04 Gerber Fmt 4.6, Leading zero omitted, Abs format (unit mm)*
G04 Created by KiCad (PCBNEW 5.1.9+dfsg1-1) date 2022-01-20 14:38:29*
%MOMM*%
%LPD*%
G01*
G04 APERTURE LIST*
G04 #@! TA.AperFunction,ComponentPad*
%ADD10O,1.700000X1.700000*%
G04 #@! TD*
G04 #@! TA.AperFunction,ComponentPad*
%ADD11R,1.700000X1.700000*%
G04 #@! TD*
G04 #@! TA.AperFunction,ComponentPad*
%ADD12C,2.500000*%
G04 #@! TD*
G04 #@! TA.AperFunction,ComponentPad*
%ADD13C,3.000000*%
G04 #@! TD*
G04 #@! TA.AperFunction,SMDPad,CuDef*
%ADD14C,1.524000*%
G04 #@! TD*
G04 #@! TA.AperFunction,ComponentPad*
%ADD15C,1.700000*%
G04 #@! TD*
G04 #@! TA.AperFunction,SMDPad,CuDef*
%ADD16O,3.000000X1.700000*%
G04 #@! TD*
G04 #@! TA.AperFunction,ComponentPad*
%ADD17C,2.000000*%
G04 #@! TD*
G04 #@! TA.AperFunction,SMDPad,CuDef*
%ADD18R,2.400000X0.740000*%
G04 #@! TD*
G04 #@! TA.AperFunction,ComponentPad*
%ADD19C,2.400000*%
G04 #@! TD*
G04 #@! TA.AperFunction,ComponentPad*
%ADD20O,2.400000X2.400000*%
G04 #@! TD*
G04 #@! TA.AperFunction,SMDPad,CuDef*
%ADD21R,1.750000X0.400000*%
G04 #@! TD*
G04 #@! TA.AperFunction,ComponentPad*
%ADD22R,3.500000X3.500000*%
G04 #@! TD*
G04 #@! TA.AperFunction,ComponentPad*
%ADD23C,3.500000*%
G04 #@! TD*
G04 #@! TA.AperFunction,ComponentPad*
%ADD24O,1.050000X1.500000*%
G04 #@! TD*
G04 #@! TA.AperFunction,ComponentPad*
%ADD25R,1.050000X1.500000*%
G04 #@! TD*
G04 #@! TA.AperFunction,ViaPad*
%ADD26C,0.800000*%
G04 #@! TD*
G04 #@! TA.AperFunction,Conductor*
%ADD27C,2.000000*%
G04 #@! TD*
G04 #@! TA.AperFunction,Conductor*
%ADD28C,0.400000*%
G04 #@! TD*
G04 #@! TA.AperFunction,Conductor*
%ADD29C,0.800000*%
G04 #@! TD*
G04 #@! TA.AperFunction,Conductor*
%ADD30C,0.300000*%
G04 #@! TD*
G04 #@! TA.AperFunction,Conductor*
%ADD31C,1.000000*%
G04 #@! TD*
G04 #@! TA.AperFunction,Conductor*
%ADD32C,0.500000*%
G04 #@! TD*
G04 #@! TA.AperFunction,Conductor*
%ADD33C,4.000000*%
G04 #@! TD*
G04 #@! TA.AperFunction,Conductor*
%ADD34C,1.500000*%
G04 #@! TD*
G04 #@! TA.AperFunction,Conductor*
%ADD35C,0.250000*%
G04 #@! TD*
G04 #@! TA.AperFunction,Conductor*
%ADD36C,0.600000*%
G04 #@! TD*
G04 APERTURE END LIST*
D10*
G04 #@! TO.P,J3,12*
G04 #@! TO.N,Net-(J3-Pad12)*
X142350000Y-94570000D03*
G04 #@! TO.P,J3,11*
G04 #@! TO.N,Net-(J3-Pad11)*
X139810000Y-94570000D03*
G04 #@! TO.P,J3,10*
G04 #@! TO.N,Net-(J3-Pad10)*
X142350000Y-92030000D03*
G04 #@! TO.P,J3,9*
G04 #@! TO.N,Net-(J3-Pad9)*
X139810000Y-92030000D03*
G04 #@! TO.P,J3,8*
G04 #@! TO.N,Net-(J3-Pad8)*
X142350000Y-89490000D03*
G04 #@! TO.P,J3,7*
G04 #@! TO.N,Net-(J3-Pad7)*
X139810000Y-89490000D03*
G04 #@! TO.P,J3,6*
G04 #@! TO.N,Net-(J3-Pad6)*
X142350000Y-86950000D03*
G04 #@! TO.P,J3,5*
G04 #@! TO.N,Net-(J3-Pad5)*
X139810000Y-86950000D03*
G04 #@! TO.P,J3,4*
G04 #@! TO.N,Net-(J3-Pad4)*
X142350000Y-84410000D03*
G04 #@! TO.P,J3,3*
G04 #@! TO.N,Net-(J3-Pad3)*
X139810000Y-84410000D03*
G04 #@! TO.P,J3,2*
G04 #@! TO.N,+3V3*
X142350000Y-81870000D03*
D11*
G04 #@! TO.P,J3,1*
G04 #@! TO.N,GND*
X139810000Y-81870000D03*
G04 #@! TD*
G04 #@! TO.P,R6,2*
G04 #@! TO.N,GND*
G04 #@! TA.AperFunction,SMDPad,CuDef*
G36*
G01*
X146919999Y-89190000D02*
X147820001Y-89190000D01*
G75*
G02*
X148070000Y-89439999I0J-249999D01*
G01*
X148070000Y-90140001D01*
G75*
G02*
X147820001Y-90390000I-249999J0D01*
G01*
X146919999Y-90390000D01*
G75*
G02*
X146670000Y-90140001I0J249999D01*
G01*
X146670000Y-89439999D01*
G75*
G02*
X146919999Y-89190000I249999J0D01*
G01*
G37*
G04 #@! TD.AperFunction*
G04 #@! TO.P,R6,1*
G04 #@! TO.N,Net-(J4-Pad7)*
G04 #@! TA.AperFunction,SMDPad,CuDef*
G36*
G01*
X146919999Y-87190000D02*
X147820001Y-87190000D01*
G75*
G02*
X148070000Y-87439999I0J-249999D01*
G01*
X148070000Y-88140001D01*
G75*
G02*
X147820001Y-88390000I-249999J0D01*
G01*
X146919999Y-88390000D01*
G75*
G02*
X146670000Y-88140001I0J249999D01*
G01*
X146670000Y-87439999D01*
G75*
G02*
X146919999Y-87190000I249999J0D01*
G01*
G37*
G04 #@! TD.AperFunction*
G04 #@! TD*
G04 #@! TO.P,R5,2*
G04 #@! TO.N,Net-(J4-Pad7)*
G04 #@! TA.AperFunction,SMDPad,CuDef*
G36*
G01*
X146919999Y-84440000D02*
X147820001Y-84440000D01*
G75*
G02*
X148070000Y-84689999I0J-249999D01*
G01*
X148070000Y-85390001D01*
G75*
G02*
X147820001Y-85640000I-249999J0D01*
G01*
X146919999Y-85640000D01*
G75*
G02*
X146670000Y-85390001I0J249999D01*
G01*
X146670000Y-84689999D01*
G75*
G02*
X146919999Y-84440000I249999J0D01*
G01*
G37*
G04 #@! TD.AperFunction*
G04 #@! TO.P,R5,1*
G04 #@! TO.N,/Controller/Bat*
G04 #@! TA.AperFunction,SMDPad,CuDef*
G36*
G01*
X146919999Y-82440000D02*
X147820001Y-82440000D01*
G75*
G02*
X148070000Y-82689999I0J-249999D01*
G01*
X148070000Y-83390001D01*
G75*
G02*
X147820001Y-83640000I-249999J0D01*
G01*
X146919999Y-83640000D01*
G75*
G02*
X146670000Y-83390001I0J249999D01*
G01*
X146670000Y-82689999D01*
G75*
G02*
X146919999Y-82440000I249999J0D01*
G01*
G37*
G04 #@! TD.AperFunction*
G04 #@! TD*
G04 #@! TO.P,C7,2*
G04 #@! TO.N,GND*
G04 #@! TA.AperFunction,SMDPad,CuDef*
G36*
G01*
X165315000Y-118580000D02*
X164365000Y-118580000D01*
G75*
G02*
X164115000Y-118330000I0J250000D01*
G01*
X164115000Y-117655000D01*
G75*
G02*
X164365000Y-117405000I250000J0D01*
G01*
X165315000Y-117405000D01*
G75*
G02*
X165565000Y-117655000I0J-250000D01*
G01*
X165565000Y-118330000D01*
G75*
G02*
X165315000Y-118580000I-250000J0D01*
G01*
G37*
G04 #@! TD.AperFunction*
G04 #@! TO.P,C7,1*
G04 #@! TO.N,+3V3*
G04 #@! TA.AperFunction,SMDPad,CuDef*
G36*
G01*
X165315000Y-120655000D02*
X164365000Y-120655000D01*
G75*
G02*
X164115000Y-120405000I0J250000D01*
G01*
X164115000Y-119730000D01*
G75*
G02*
X164365000Y-119480000I250000J0D01*
G01*
X165315000Y-119480000D01*
G75*
G02*
X165565000Y-119730000I0J-250000D01*
G01*
X165565000Y-120405000D01*
G75*
G02*
X165315000Y-120655000I-250000J0D01*
G01*
G37*
G04 #@! TD.AperFunction*
G04 #@! TD*
D10*
G04 #@! TO.P,J6,2*
G04 #@! TO.N,Net-(J6-Pad2)*
X184140000Y-69850000D03*
D11*
G04 #@! TO.P,J6,1*
G04 #@! TO.N,GND*
X186680000Y-69850000D03*
G04 #@! TD*
D12*
G04 #@! TO.P,J2,3*
G04 #@! TO.N,+3V3*
X188936520Y-130786980D03*
G04 #@! TO.P,J2,7*
G04 #@! TO.N,N/C*
X203920000Y-135820000D03*
G04 #@! TO.P,J2,8*
X203920000Y-125820000D03*
G04 #@! TO.P,J2,4*
G04 #@! TO.N,/Controller/encb2*
X191420000Y-135820000D03*
G04 #@! TO.P,J2,1*
G04 #@! TO.N,Net-(J2-Pad1)*
X193920000Y-123320000D03*
G04 #@! TO.P,J2,6*
G04 #@! TO.N,GND*
X193920000Y-130820000D03*
G04 #@! TO.P,J2,2*
G04 #@! TO.N,Net-(J2-Pad2)*
X191420000Y-125820000D03*
G04 #@! TO.P,J2,5*
G04 #@! TO.N,/Controller/encb1*
X193920000Y-138320000D03*
G04 #@! TD*
G04 #@! TO.P,J1,3*
G04 #@! TO.N,+3V3*
X188716520Y-106966980D03*
G04 #@! TO.P,J1,7*
G04 #@! TO.N,N/C*
X203700000Y-112000000D03*
G04 #@! TO.P,J1,8*
X203700000Y-102000000D03*
G04 #@! TO.P,J1,4*
G04 #@! TO.N,/Controller/enca2*
X191200000Y-112000000D03*
G04 #@! TO.P,J1,1*
G04 #@! TO.N,Net-(J1-Pad1)*
X193700000Y-99500000D03*
G04 #@! TO.P,J1,6*
G04 #@! TO.N,GND*
X193700000Y-107000000D03*
G04 #@! TO.P,J1,2*
G04 #@! TO.N,Net-(J1-Pad2)*
X191200000Y-102000000D03*
G04 #@! TO.P,J1,5*
G04 #@! TO.N,/Controller/enca1*
X193700000Y-114500000D03*
G04 #@! TD*
D13*
G04 #@! TO.P,U2,2*
G04 #@! TO.N,/Controller/Bat*
X170805840Y-81695320D03*
G04 #@! TO.P,U2,3*
G04 #@! TO.N,GND*
X170816000Y-86650860D03*
D12*
G04 #@! TO.P,U2,4*
G04 #@! TO.N,Net-(J6-Pad2)*
X204326220Y-91349860D03*
G04 #@! TO.P,U2,1*
G04 #@! TO.N,GND*
X204305900Y-75891420D03*
G04 #@! TD*
G04 #@! TO.P,C4,2*
G04 #@! TO.N,GND*
G04 #@! TA.AperFunction,SMDPad,CuDef*
G36*
G01*
X182490000Y-138279998D02*
X182490000Y-140480002D01*
G75*
G02*
X182240002Y-140730000I-249998J0D01*
G01*
X181414998Y-140730000D01*
G75*
G02*
X181165000Y-140480002I0J249998D01*
G01*
X181165000Y-138279998D01*
G75*
G02*
X181414998Y-138030000I249998J0D01*
G01*
X182240002Y-138030000D01*
G75*
G02*
X182490000Y-138279998I0J-249998D01*
G01*
G37*
G04 #@! TD.AperFunction*
G04 #@! TO.P,C4,1*
G04 #@! TO.N,+3V3*
G04 #@! TA.AperFunction,SMDPad,CuDef*
G36*
G01*
X185615000Y-138279998D02*
X185615000Y-140480002D01*
G75*
G02*
X185365002Y-140730000I-249998J0D01*
G01*
X184539998Y-140730000D01*
G75*
G02*
X184290000Y-140480002I0J249998D01*
G01*
X184290000Y-138279998D01*
G75*
G02*
X184539998Y-138030000I249998J0D01*
G01*
X185365002Y-138030000D01*
G75*
G02*
X185615000Y-138279998I0J-249998D01*
G01*
G37*
G04 #@! TD.AperFunction*
G04 #@! TD*
D14*
G04 #@! TO.P,J4,32*
G04 #@! TO.N,Net-(J4-Pad32)*
X153230320Y-138265540D03*
G04 #@! TO.P,J4,31*
G04 #@! TO.N,Net-(J4-Pad31)*
X150636980Y-140772520D03*
D10*
G04 #@! TO.P,J4,30*
G04 #@! TO.N,Net-(J4-Pad30)*
X160830000Y-102830000D03*
G04 #@! TO.P,J4,29*
G04 #@! TO.N,/Controller/enca2*
X160830000Y-105370000D03*
G04 #@! TO.P,J4,28*
G04 #@! TO.N,/Controller/enca1*
X160830000Y-107910000D03*
G04 #@! TO.P,J4,27*
G04 #@! TO.N,/Controller/pmwb*
X160830000Y-110450000D03*
G04 #@! TO.P,J4,26*
G04 #@! TO.N,/Controller/bin2*
X160830000Y-112990000D03*
G04 #@! TO.P,J4,25*
G04 #@! TO.N,/Controller/bin1*
X160830000Y-115530000D03*
G04 #@! TO.P,J4,24*
G04 #@! TO.N,/Controller/ain1*
X160830000Y-118070000D03*
G04 #@! TO.P,J4,23*
G04 #@! TO.N,/Controller/ain2*
X160830000Y-120610000D03*
G04 #@! TO.P,J4,22*
G04 #@! TO.N,/Controller/pwma*
X160830000Y-123150000D03*
G04 #@! TO.P,J4,21*
G04 #@! TO.N,/Controller/encb2*
X160830000Y-125690000D03*
G04 #@! TO.P,J4,20*
G04 #@! TO.N,/Controller/encb1*
X160830000Y-128230000D03*
G04 #@! TO.P,J4,19*
G04 #@! TO.N,GND*
X160830000Y-130770000D03*
G04 #@! TO.P,J4,18*
G04 #@! TO.N,Net-(J4-Pad18)*
X160830000Y-133310000D03*
G04 #@! TO.P,J4,17*
G04 #@! TO.N,Net-(J3-Pad11)*
X160830000Y-135850000D03*
D15*
G04 #@! TO.P,J4,16*
G04 #@! TO.N,Net-(J3-Pad9)*
X160830000Y-138390000D03*
D16*
X161465000Y-138390000D03*
G04 #@! TO.P,J4,17*
G04 #@! TO.N,Net-(J3-Pad11)*
X161465000Y-135850000D03*
G04 #@! TO.P,J4,18*
G04 #@! TO.N,Net-(J4-Pad18)*
X161465000Y-133310000D03*
G04 #@! TO.P,J4,19*
G04 #@! TO.N,GND*
X161465000Y-130770000D03*
G04 #@! TO.P,J4,20*
G04 #@! TO.N,/Controller/encb1*
X161465000Y-128230000D03*
G04 #@! TO.P,J4,21*
G04 #@! TO.N,/Controller/encb2*
X161465000Y-125690000D03*
G04 #@! TO.P,J4,22*
G04 #@! TO.N,/Controller/pwma*
X161465000Y-123150000D03*
G04 #@! TO.P,J4,23*
G04 #@! TO.N,/Controller/ain2*
X161465000Y-120610000D03*
G04 #@! TO.P,J4,24*
G04 #@! TO.N,/Controller/ain1*
X161465000Y-118070000D03*
G04 #@! TO.P,J4,25*
G04 #@! TO.N,/Controller/bin1*
X161465000Y-115530000D03*
G04 #@! TO.P,J4,26*
G04 #@! TO.N,/Controller/bin2*
X161465000Y-112990000D03*
G04 #@! TO.P,J4,27*
G04 #@! TO.N,/Controller/pmwb*
X161465000Y-110450000D03*
G04 #@! TO.P,J4,28*
G04 #@! TO.N,/Controller/enca1*
X161465000Y-107910000D03*
G04 #@! TO.P,J4,29*
G04 #@! TO.N,/Controller/enca2*
X161465000Y-105370000D03*
G04 #@! TO.P,J4,30*
G04 #@! TO.N,Net-(J4-Pad30)*
X161465000Y-102830000D03*
G04 #@! TO.P,J4,2*
G04 #@! TO.N,+3V3*
X144955000Y-105370000D03*
G04 #@! TO.P,J4,15*
G04 #@! TO.N,Net-(J4-Pad15)*
X144955000Y-138390000D03*
G04 #@! TO.P,J4,8*
G04 #@! TO.N,Net-(J3-Pad12)*
X144955000Y-120610000D03*
D10*
G04 #@! TO.P,J4,12*
G04 #@! TO.N,Net-(J4-Pad12)*
X145590000Y-130770000D03*
D16*
G04 #@! TO.P,J4,6*
G04 #@! TO.N,Net-(J3-Pad4)*
X144955000Y-115530000D03*
D10*
G04 #@! TO.P,J4,15*
G04 #@! TO.N,Net-(J4-Pad15)*
X145590000Y-138390000D03*
D16*
G04 #@! TO.P,J4,7*
G04 #@! TO.N,Net-(J4-Pad7)*
X144955000Y-118070000D03*
D15*
G04 #@! TO.P,J4,1*
G04 #@! TO.N,Net-(J3-Pad10)*
X145590000Y-102830000D03*
D10*
G04 #@! TO.P,J4,2*
G04 #@! TO.N,+3V3*
X145590000Y-105370000D03*
G04 #@! TO.P,J4,3*
G04 #@! TO.N,Net-(J4-Pad3)*
X145590000Y-107910000D03*
G04 #@! TO.P,J4,4*
G04 #@! TO.N,Net-(J3-Pad8)*
X145590000Y-110450000D03*
G04 #@! TO.P,J4,5*
G04 #@! TO.N,Net-(J3-Pad6)*
X145590000Y-112990000D03*
G04 #@! TO.P,J4,14*
G04 #@! TO.N,GND*
X145590000Y-135850000D03*
G04 #@! TO.P,J4,6*
G04 #@! TO.N,Net-(J3-Pad4)*
X145590000Y-115530000D03*
D16*
G04 #@! TO.P,J4,9*
G04 #@! TO.N,Net-(J3-Pad7)*
X144955000Y-123150000D03*
G04 #@! TO.P,J4,10*
G04 #@! TO.N,Net-(J3-Pad5)*
X144955000Y-125690000D03*
D10*
G04 #@! TO.P,J4,11*
G04 #@! TO.N,Net-(J3-Pad3)*
X145590000Y-128230000D03*
G04 #@! TO.P,J4,10*
G04 #@! TO.N,Net-(J3-Pad5)*
X145590000Y-125690000D03*
D16*
G04 #@! TO.P,J4,4*
G04 #@! TO.N,Net-(J3-Pad8)*
X144955000Y-110450000D03*
D10*
G04 #@! TO.P,J4,7*
G04 #@! TO.N,Net-(J4-Pad7)*
X145590000Y-118070000D03*
D16*
G04 #@! TO.P,J4,14*
G04 #@! TO.N,GND*
X144955000Y-135850000D03*
G04 #@! TO.P,J4,1*
G04 #@! TO.N,Net-(J3-Pad10)*
X144955000Y-102830000D03*
D10*
G04 #@! TO.P,J4,8*
G04 #@! TO.N,Net-(J3-Pad12)*
X145590000Y-120610000D03*
G04 #@! TO.P,J4,9*
G04 #@! TO.N,Net-(J3-Pad7)*
X145590000Y-123150000D03*
G04 #@! TO.P,J4,13*
G04 #@! TO.N,Net-(J4-Pad13)*
X145590000Y-133310000D03*
D16*
G04 #@! TO.P,J4,12*
G04 #@! TO.N,Net-(J4-Pad12)*
X144955000Y-130770000D03*
G04 #@! TO.P,J4,13*
G04 #@! TO.N,Net-(J4-Pad13)*
X144955000Y-133310000D03*
G04 #@! TO.P,J4,5*
G04 #@! TO.N,Net-(J3-Pad6)*
X144955000Y-112990000D03*
G04 #@! TO.P,J4,3*
G04 #@! TO.N,Net-(J4-Pad3)*
X144955000Y-107910000D03*
G04 #@! TO.P,J4,11*
G04 #@! TO.N,Net-(J3-Pad3)*
X144955000Y-128230000D03*
G04 #@! TD*
D17*
G04 #@! TO.P,TP2,1*
G04 #@! TO.N,Net-(J4-Pad32)*
X157400000Y-146000000D03*
G04 #@! TD*
G04 #@! TO.P,TP1,1*
G04 #@! TO.N,Net-(J4-Pad31)*
X150600000Y-146000000D03*
G04 #@! TD*
G04 #@! TO.P,C1,1*
G04 #@! TO.N,/Controller/Bat*
G04 #@! TA.AperFunction,SMDPad,CuDef*
G36*
G01*
X175245000Y-97515001D02*
X175245000Y-95464999D01*
G75*
G02*
X175494999Y-95215000I249999J0D01*
G01*
X177245001Y-95215000D01*
G75*
G02*
X177495000Y-95464999I0J-249999D01*
G01*
X177495000Y-97515001D01*
G75*
G02*
X177245001Y-97765000I-249999J0D01*
G01*
X175494999Y-97765000D01*
G75*
G02*
X175245000Y-97515001I0J249999D01*
G01*
G37*
G04 #@! TD.AperFunction*
G04 #@! TO.P,C1,2*
G04 #@! TO.N,GND*
G04 #@! TA.AperFunction,SMDPad,CuDef*
G36*
G01*
X181645000Y-97515001D02*
X181645000Y-95464999D01*
G75*
G02*
X181894999Y-95215000I249999J0D01*
G01*
X183645001Y-95215000D01*
G75*
G02*
X183895000Y-95464999I0J-249999D01*
G01*
X183895000Y-97515001D01*
G75*
G02*
X183645001Y-97765000I-249999J0D01*
G01*
X181894999Y-97765000D01*
G75*
G02*
X181645000Y-97515001I0J249999D01*
G01*
G37*
G04 #@! TD.AperFunction*
G04 #@! TD*
G04 #@! TO.P,C2,1*
G04 #@! TO.N,+3V3*
G04 #@! TA.AperFunction,SMDPad,CuDef*
G36*
G01*
X185100002Y-120425000D02*
X182899998Y-120425000D01*
G75*
G02*
X182650000Y-120175002I0J249998D01*
G01*
X182650000Y-119349998D01*
G75*
G02*
X182899998Y-119100000I249998J0D01*
G01*
X185100002Y-119100000D01*
G75*
G02*
X185350000Y-119349998I0J-249998D01*
G01*
X185350000Y-120175002D01*
G75*
G02*
X185100002Y-120425000I-249998J0D01*
G01*
G37*
G04 #@! TD.AperFunction*
G04 #@! TO.P,C2,2*
G04 #@! TO.N,GND*
G04 #@! TA.AperFunction,SMDPad,CuDef*
G36*
G01*
X185100002Y-117300000D02*
X182899998Y-117300000D01*
G75*
G02*
X182650000Y-117050002I0J249998D01*
G01*
X182650000Y-116224998D01*
G75*
G02*
X182899998Y-115975000I249998J0D01*
G01*
X185100002Y-115975000D01*
G75*
G02*
X185350000Y-116224998I0J-249998D01*
G01*
X185350000Y-117050002D01*
G75*
G02*
X185100002Y-117300000I-249998J0D01*
G01*
G37*
G04 #@! TD.AperFunction*
G04 #@! TD*
G04 #@! TO.P,C3,1*
G04 #@! TO.N,/Controller/Bat*
G04 #@! TA.AperFunction,SMDPad,CuDef*
G36*
G01*
X171825000Y-110725000D02*
X171825000Y-111675000D01*
G75*
G02*
X171575000Y-111925000I-250000J0D01*
G01*
X170900000Y-111925000D01*
G75*
G02*
X170650000Y-111675000I0J250000D01*
G01*
X170650000Y-110725000D01*
G75*
G02*
X170900000Y-110475000I250000J0D01*
G01*
X171575000Y-110475000D01*
G75*
G02*
X171825000Y-110725000I0J-250000D01*
G01*
G37*
G04 #@! TD.AperFunction*
G04 #@! TO.P,C3,2*
G04 #@! TO.N,GND*
G04 #@! TA.AperFunction,SMDPad,CuDef*
G36*
G01*
X169750000Y-110725000D02*
X169750000Y-111675000D01*
G75*
G02*
X169500000Y-111925000I-250000J0D01*
G01*
X168825000Y-111925000D01*
G75*
G02*
X168575000Y-111675000I0J250000D01*
G01*
X168575000Y-110725000D01*
G75*
G02*
X168825000Y-110475000I250000J0D01*
G01*
X169500000Y-110475000D01*
G75*
G02*
X169750000Y-110725000I0J-250000D01*
G01*
G37*
G04 #@! TD.AperFunction*
G04 #@! TD*
G04 #@! TO.P,C5,2*
G04 #@! TO.N,GND*
G04 #@! TA.AperFunction,SMDPad,CuDef*
G36*
G01*
X160500000Y-91699998D02*
X160500000Y-93900002D01*
G75*
G02*
X160250002Y-94150000I-249998J0D01*
G01*
X159424998Y-94150000D01*
G75*
G02*
X159175000Y-93900002I0J249998D01*
G01*
X159175000Y-91699998D01*
G75*
G02*
X159424998Y-91450000I249998J0D01*
G01*
X160250002Y-91450000D01*
G75*
G02*
X160500000Y-91699998I0J-249998D01*
G01*
G37*
G04 #@! TD.AperFunction*
G04 #@! TO.P,C5,1*
G04 #@! TO.N,+3V3*
G04 #@! TA.AperFunction,SMDPad,CuDef*
G36*
G01*
X163625000Y-91699998D02*
X163625000Y-93900002D01*
G75*
G02*
X163375002Y-94150000I-249998J0D01*
G01*
X162549998Y-94150000D01*
G75*
G02*
X162300000Y-93900002I0J249998D01*
G01*
X162300000Y-91699998D01*
G75*
G02*
X162549998Y-91450000I249998J0D01*
G01*
X163375002Y-91450000D01*
G75*
G02*
X163625000Y-91699998I0J-249998D01*
G01*
G37*
G04 #@! TD.AperFunction*
G04 #@! TD*
G04 #@! TO.P,C6,1*
G04 #@! TO.N,+3V3*
G04 #@! TA.AperFunction,SMDPad,CuDef*
G36*
G01*
X140870002Y-105865000D02*
X138669998Y-105865000D01*
G75*
G02*
X138420000Y-105615002I0J249998D01*
G01*
X138420000Y-104789998D01*
G75*
G02*
X138669998Y-104540000I249998J0D01*
G01*
X140870002Y-104540000D01*
G75*
G02*
X141120000Y-104789998I0J-249998D01*
G01*
X141120000Y-105615002D01*
G75*
G02*
X140870002Y-105865000I-249998J0D01*
G01*
G37*
G04 #@! TD.AperFunction*
G04 #@! TO.P,C6,2*
G04 #@! TO.N,GND*
G04 #@! TA.AperFunction,SMDPad,CuDef*
G36*
G01*
X140870002Y-102740000D02*
X138669998Y-102740000D01*
G75*
G02*
X138420000Y-102490002I0J249998D01*
G01*
X138420000Y-101664998D01*
G75*
G02*
X138669998Y-101415000I249998J0D01*
G01*
X140870002Y-101415000D01*
G75*
G02*
X141120000Y-101664998I0J-249998D01*
G01*
X141120000Y-102490002D01*
G75*
G02*
X140870002Y-102740000I-249998J0D01*
G01*
G37*
G04 #@! TD.AperFunction*
G04 #@! TD*
D18*
G04 #@! TO.P,J5,1*
G04 #@! TO.N,+3V3*
X177080000Y-143290000D03*
G04 #@! TO.P,J5,2*
G04 #@! TO.N,Net-(J4-Pad31)*
X173180000Y-143290000D03*
G04 #@! TO.P,J5,3*
G04 #@! TO.N,GND*
X177080000Y-142020000D03*
G04 #@! TO.P,J5,4*
G04 #@! TO.N,Net-(J4-Pad32)*
X173180000Y-142020000D03*
G04 #@! TO.P,J5,5*
G04 #@! TO.N,GND*
X177080000Y-140750000D03*
G04 #@! TO.P,J5,6*
G04 #@! TO.N,Net-(J5-Pad6)*
X173180000Y-140750000D03*
G04 #@! TO.P,J5,7*
G04 #@! TO.N,Net-(J5-Pad7)*
X177080000Y-139480000D03*
G04 #@! TO.P,J5,8*
G04 #@! TO.N,Net-(J5-Pad8)*
X173180000Y-139480000D03*
G04 #@! TO.P,J5,9*
G04 #@! TO.N,GND*
X177080000Y-138210000D03*
G04 #@! TO.P,J5,10*
G04 #@! TO.N,Net-(J4-Pad18)*
X173180000Y-138210000D03*
G04 #@! TD*
G04 #@! TO.P,R1,1*
G04 #@! TO.N,+3V3*
G04 #@! TA.AperFunction,SMDPad,CuDef*
G36*
G01*
X168030001Y-120620000D02*
X167129999Y-120620000D01*
G75*
G02*
X166880000Y-120370001I0J249999D01*
G01*
X166880000Y-119669999D01*
G75*
G02*
X167129999Y-119420000I249999J0D01*
G01*
X168030001Y-119420000D01*
G75*
G02*
X168280000Y-119669999I0J-249999D01*
G01*
X168280000Y-120370001D01*
G75*
G02*
X168030001Y-120620000I-249999J0D01*
G01*
G37*
G04 #@! TD.AperFunction*
G04 #@! TO.P,R1,2*
G04 #@! TO.N,Net-(R1-Pad2)*
G04 #@! TA.AperFunction,SMDPad,CuDef*
G36*
G01*
X168030001Y-118620000D02*
X167129999Y-118620000D01*
G75*
G02*
X166880000Y-118370001I0J249999D01*
G01*
X166880000Y-117669999D01*
G75*
G02*
X167129999Y-117420000I249999J0D01*
G01*
X168030001Y-117420000D01*
G75*
G02*
X168280000Y-117669999I0J-249999D01*
G01*
X168280000Y-118370001D01*
G75*
G02*
X168030001Y-118620000I-249999J0D01*
G01*
G37*
G04 #@! TD.AperFunction*
G04 #@! TD*
D19*
G04 #@! TO.P,R2,1*
G04 #@! TO.N,Net-(J2-Pad1)*
X179800000Y-129600000D03*
D20*
G04 #@! TO.P,R2,2*
G04 #@! TO.N,Net-(R2-Pad2)*
X174720000Y-129600000D03*
G04 #@! TD*
G04 #@! TO.P,R3,2*
G04 #@! TO.N,Net-(R3-Pad2)*
X175920000Y-104000000D03*
D19*
G04 #@! TO.P,R3,1*
G04 #@! TO.N,Net-(J1-Pad2)*
X181000000Y-104000000D03*
G04 #@! TD*
D21*
G04 #@! TO.P,U1,24*
G04 #@! TO.N,/Controller/Bat*
X171400000Y-121975000D03*
G04 #@! TO.P,U1,23*
G04 #@! TO.N,/Controller/pwma*
X171400000Y-121325000D03*
G04 #@! TO.P,U1,22*
G04 #@! TO.N,/Controller/ain2*
X171400000Y-120675000D03*
G04 #@! TO.P,U1,21*
G04 #@! TO.N,/Controller/ain1*
X171400000Y-120025000D03*
G04 #@! TO.P,U1,20*
G04 #@! TO.N,+3V3*
X171400000Y-119375000D03*
G04 #@! TO.P,U1,19*
G04 #@! TO.N,Net-(R1-Pad2)*
X171400000Y-118725000D03*
G04 #@! TO.P,U1,18*
G04 #@! TO.N,GND*
X171400000Y-118075000D03*
G04 #@! TO.P,U1,17*
G04 #@! TO.N,/Controller/bin1*
X171400000Y-117425000D03*
G04 #@! TO.P,U1,16*
G04 #@! TO.N,/Controller/bin2*
X171400000Y-116775000D03*
G04 #@! TO.P,U1,15*
G04 #@! TO.N,/Controller/pmwb*
X171400000Y-116125000D03*
G04 #@! TO.P,U1,14*
G04 #@! TO.N,/Controller/Bat*
X171400000Y-115475000D03*
G04 #@! TO.P,U1,13*
X171400000Y-114825000D03*
G04 #@! TO.P,U1,12*
G04 #@! TO.N,Net-(J1-Pad1)*
X178600000Y-114825000D03*
G04 #@! TO.P,U1,11*
X178600000Y-115475000D03*
G04 #@! TO.P,U1,10*
G04 #@! TO.N,GND*
X178600000Y-116125000D03*
G04 #@! TO.P,U1,9*
X178600000Y-116775000D03*
G04 #@! TO.P,U1,8*
G04 #@! TO.N,Net-(R3-Pad2)*
X178600000Y-117425000D03*
G04 #@! TO.P,U1,7*
X178600000Y-118075000D03*
G04 #@! TO.P,U1,6*
G04 #@! TO.N,Net-(J2-Pad2)*
X178600000Y-118725000D03*
G04 #@! TO.P,U1,5*
X178600000Y-119375000D03*
G04 #@! TO.P,U1,4*
G04 #@! TO.N,GND*
X178600000Y-120025000D03*
G04 #@! TO.P,U1,3*
X178600000Y-120675000D03*
G04 #@! TO.P,U1,2*
G04 #@! TO.N,Net-(R2-Pad2)*
X178600000Y-121325000D03*
G04 #@! TO.P,U1,1*
X178600000Y-121975000D03*
G04 #@! TD*
D22*
G04 #@! TO.P,U3,1*
G04 #@! TO.N,Net-(U3-Pad1)*
X104819380Y-143408840D03*
D23*
G04 #@! TO.P,U3,4*
X124816800Y-143434240D03*
G04 #@! TO.P,U3,2*
G04 #@! TO.N,GND*
X104763500Y-71112820D03*
G04 #@! TO.P,U3,3*
G04 #@! TO.N,/Controller/Bat*
X124824420Y-71150920D03*
G04 #@! TD*
D24*
G04 #@! TO.P,U4,2*
G04 #@! TO.N,/Controller/Bat*
X169920000Y-97450000D03*
G04 #@! TO.P,U4,3*
G04 #@! TO.N,+3V3*
X171190000Y-97450000D03*
D25*
G04 #@! TO.P,U4,1*
G04 #@! TO.N,GND*
X168650000Y-97450000D03*
G04 #@! TD*
D26*
G04 #@! TO.N,GND*
X179800000Y-96400000D03*
X176330000Y-119680000D03*
X181222500Y-116637500D03*
X169530000Y-113440000D03*
X155930000Y-93300000D03*
X161530000Y-99820000D03*
X176980000Y-120590000D03*
X180220000Y-116490000D03*
X171660000Y-136470000D03*
X169370380Y-117439620D03*
X158100000Y-127100000D03*
G04 #@! TO.N,+3V3*
X176830000Y-125460000D03*
X160390000Y-88490000D03*
X167660000Y-121930000D03*
G04 #@! TO.N,Net-(J2-Pad2)*
X181210000Y-118860000D03*
X180800000Y-119800000D03*
G04 #@! TO.N,/Controller/Bat*
X170000000Y-107400000D03*
X168800000Y-107400000D03*
X167600000Y-107400000D03*
X172800000Y-107400000D03*
X171360000Y-107400000D03*
X147370000Y-80240000D03*
G04 #@! TO.N,Net-(J4-Pad7)*
X149600000Y-83470000D03*
G04 #@! TD*
D27*
G04 #@! TO.N,GND*
X179890000Y-96490000D02*
X179800000Y-96400000D01*
X182770000Y-96490000D02*
X179890000Y-96490000D01*
X162885000Y-130800000D02*
X159870000Y-130800000D01*
D28*
X183487500Y-116125000D02*
X184000000Y-116637500D01*
X178600000Y-116125000D02*
X183487500Y-116125000D01*
X183862500Y-116775000D02*
X184000000Y-116637500D01*
X178600000Y-116775000D02*
X183862500Y-116775000D01*
D29*
X184000000Y-116637500D02*
X181222500Y-116637500D01*
D28*
X176675000Y-120025000D02*
X176330000Y-119680000D01*
X178600000Y-120025000D02*
X176675000Y-120025000D01*
X178600000Y-120675000D02*
X176955000Y-120675000D01*
X176330000Y-120050000D02*
X176330000Y-119680000D01*
X176955000Y-120675000D02*
X176330000Y-120050000D01*
D29*
X181222500Y-116637500D02*
X180377500Y-116637500D01*
D30*
X169090000Y-111272500D02*
X169162500Y-111200000D01*
D31*
X169162500Y-113072500D02*
X169530000Y-113440000D01*
X169162500Y-111200000D02*
X169162500Y-113072500D01*
X169162500Y-111200000D02*
X168450000Y-111200000D01*
X168450000Y-111200000D02*
X165620000Y-108370000D01*
X165620000Y-108370000D02*
X165620000Y-100480000D01*
X179800000Y-95634860D02*
X170816000Y-86650860D01*
X179800000Y-96400000D02*
X179800000Y-95634860D01*
X163055000Y-130970000D02*
X162885000Y-130800000D01*
D32*
X176330000Y-119680000D02*
X176330000Y-120264351D01*
D27*
X192721420Y-75891420D02*
X186680000Y-69850000D01*
X204305900Y-75891420D02*
X192721420Y-75891420D01*
X139810000Y-81870000D02*
X139810000Y-80460000D01*
X139810000Y-80460000D02*
X141410000Y-78860000D01*
X139810000Y-80460000D02*
X139810000Y-79980000D01*
X139810000Y-79980000D02*
X138630000Y-78800000D01*
D33*
X112450680Y-78800000D02*
X104763500Y-71112820D01*
X138630000Y-78800000D02*
X112450680Y-78800000D01*
X141410000Y-78860000D02*
X141410000Y-78380000D01*
X141410000Y-78380000D02*
X142450000Y-77340000D01*
X168850860Y-86650860D02*
X170816000Y-86650860D01*
X159540000Y-77340000D02*
X168850860Y-86650860D01*
D31*
X156350000Y-92800000D02*
X159837500Y-92800000D01*
X155915000Y-93285000D02*
X155930000Y-93300000D01*
X155865000Y-93285000D02*
X155915000Y-93285000D01*
X152360000Y-96790000D02*
X155865000Y-93285000D01*
X155865000Y-93285000D02*
X156350000Y-92800000D01*
X166180000Y-99820000D02*
X166230000Y-99870000D01*
X161530000Y-99820000D02*
X166180000Y-99820000D01*
X166230000Y-99870000D02*
X168650000Y-97450000D01*
X165620000Y-100480000D02*
X166230000Y-99870000D01*
D27*
X149500000Y-134730000D02*
X153430000Y-130800000D01*
X148350000Y-135880000D02*
X149500000Y-134730000D01*
D30*
X151410000Y-92350000D02*
X151410000Y-96520000D01*
X151410000Y-96520000D02*
X151140000Y-96790000D01*
D31*
X151140000Y-96790000D02*
X152360000Y-96790000D01*
D27*
X155930000Y-93300000D02*
X155930000Y-79160000D01*
X155930000Y-79160000D02*
X154110000Y-77340000D01*
D33*
X154110000Y-77340000D02*
X159540000Y-77340000D01*
X142450000Y-77340000D02*
X154110000Y-77340000D01*
D27*
X158100000Y-102720000D02*
X158100000Y-127100000D01*
D34*
X158760000Y-130800000D02*
X159870000Y-130800000D01*
D27*
X153430000Y-130800000D02*
X158760000Y-130800000D01*
D29*
X180657500Y-138210000D02*
X181827500Y-139380000D01*
X177080000Y-138210000D02*
X180657500Y-138210000D01*
X180457500Y-140750000D02*
X181827500Y-139380000D01*
X177080000Y-140750000D02*
X180457500Y-140750000D01*
X179187500Y-142020000D02*
X180457500Y-140750000D01*
X177080000Y-142020000D02*
X179187500Y-142020000D01*
X177080000Y-138210000D02*
X177080000Y-137620000D01*
X177080000Y-137620000D02*
X175930000Y-136470000D01*
X175930000Y-136470000D02*
X171660000Y-136470000D01*
D31*
X143270000Y-96790000D02*
X151140000Y-96790000D01*
X139770000Y-100290000D02*
X143270000Y-96790000D01*
X139770000Y-102077500D02*
X139770000Y-100290000D01*
D34*
X145620000Y-135880000D02*
X145590000Y-135850000D01*
X148350000Y-135880000D02*
X145620000Y-135880000D01*
X161000000Y-99820000D02*
X158100000Y-102720000D01*
X161530000Y-99820000D02*
X161000000Y-99820000D01*
D29*
X161020000Y-130960000D02*
X160830000Y-130770000D01*
X166150000Y-130960000D02*
X161020000Y-130960000D01*
D34*
X174860000Y-121110000D02*
X174860000Y-122520000D01*
X175595010Y-120374990D02*
X174860000Y-121110000D01*
X174860000Y-122520000D02*
X172330000Y-125050000D01*
D29*
X167350000Y-132160000D02*
X166150000Y-130960000D01*
D34*
X176290072Y-120374990D02*
X175595010Y-120374990D01*
D29*
X171660000Y-136470000D02*
X167350000Y-132160000D01*
D30*
X170005760Y-118075000D02*
X169370380Y-117439620D01*
D32*
X165450000Y-116220000D02*
X164850000Y-116820000D01*
X164850000Y-116820000D02*
X164850000Y-118292500D01*
X168150760Y-116220000D02*
X165450000Y-116220000D01*
X169370380Y-117439620D02*
X168150760Y-116220000D01*
D34*
X172330000Y-125050000D02*
X172330000Y-125100000D01*
X166660000Y-130770000D02*
X161465000Y-130770000D01*
X172330000Y-125100000D02*
X166660000Y-130770000D01*
D30*
X147370000Y-89790000D02*
X147370000Y-90530000D01*
X149190000Y-92350000D02*
X151410000Y-92350000D01*
X147370000Y-90530000D02*
X149190000Y-92350000D01*
D27*
X158100000Y-127100000D02*
X158100000Y-130930000D01*
D30*
X171400000Y-118075000D02*
X170005760Y-118075000D01*
D28*
G04 #@! TO.N,+3V3*
X177150000Y-143270000D02*
X177937500Y-143270000D01*
D31*
X171190000Y-97450000D02*
X171190000Y-96190000D01*
X167800000Y-92800000D02*
X162962500Y-92800000D01*
X171190000Y-96190000D02*
X167800000Y-92800000D01*
D29*
X171190000Y-97450000D02*
X171190000Y-97590000D01*
D31*
X162962500Y-92800000D02*
X162962500Y-94837500D01*
X188663600Y-106959680D02*
X188663600Y-109236400D01*
X188663600Y-109236400D02*
X187200000Y-110700000D01*
X187200000Y-110700000D02*
X187200000Y-118870000D01*
X186307500Y-119762500D02*
X184000000Y-119762500D01*
X187200000Y-118870000D02*
X186307500Y-119762500D01*
X188853600Y-122308600D02*
X186307500Y-119762500D01*
X188853600Y-130779680D02*
X188853600Y-122308600D01*
X188853600Y-136456400D02*
X188853600Y-130779680D01*
X188817200Y-139380000D02*
X188853600Y-139343600D01*
X184952500Y-139380000D02*
X188817200Y-139380000D01*
X188853600Y-139343600D02*
X188853600Y-136456400D01*
X184000000Y-119762500D02*
X184000000Y-121870000D01*
X180410000Y-125460000D02*
X176830000Y-125460000D01*
X184000000Y-121870000D02*
X180410000Y-125460000D01*
X162962500Y-94837500D02*
X152400000Y-105400000D01*
X162962500Y-91062500D02*
X160390000Y-88490000D01*
X162962500Y-92800000D02*
X162962500Y-91062500D01*
D29*
X188853600Y-139343600D02*
X188853600Y-140056400D01*
X185620000Y-143290000D02*
X177080000Y-143290000D01*
X188853600Y-140056400D02*
X185620000Y-143290000D01*
D31*
X144787500Y-105202500D02*
X144955000Y-105370000D01*
X139770000Y-105202500D02*
X144787500Y-105202500D01*
X144985000Y-105400000D02*
X144955000Y-105370000D01*
X152400000Y-105400000D02*
X144985000Y-105400000D01*
D32*
X167660000Y-120330000D02*
X167630000Y-120300000D01*
X167660000Y-121930000D02*
X167660000Y-120330000D01*
X164917500Y-120300000D02*
X164850000Y-120367500D01*
X167630000Y-120300000D02*
X164917500Y-120300000D01*
D28*
X168225000Y-119375000D02*
X167580000Y-120020000D01*
X171400000Y-119375000D02*
X168225000Y-119375000D01*
D27*
G04 #@! TO.N,Net-(J1-Pad1)*
X193690000Y-99480000D02*
X193690000Y-102910000D01*
X193800000Y-103050000D02*
X192310000Y-104540000D01*
X192320000Y-104480000D02*
X185520000Y-104480000D01*
X185400000Y-104380000D02*
X181000000Y-108780000D01*
X181100000Y-108330000D02*
X181100000Y-114730000D01*
D32*
X180625000Y-114825000D02*
X181000000Y-115200000D01*
X178600000Y-114825000D02*
X180625000Y-114825000D01*
X180725000Y-115475000D02*
X181000000Y-115200000D01*
X178600000Y-115475000D02*
X180725000Y-115475000D01*
D27*
G04 #@! TO.N,Net-(J1-Pad2)*
X183020000Y-101980000D02*
X181000000Y-104000000D01*
X191190000Y-101980000D02*
X183020000Y-101980000D01*
D28*
G04 #@! TO.N,Net-(J2-Pad2)*
X180375000Y-119375000D02*
X180800000Y-119800000D01*
X178600000Y-119375000D02*
X180375000Y-119375000D01*
X178600000Y-118725000D02*
X181075000Y-118725000D01*
X181075000Y-118725000D02*
X181210000Y-118860000D01*
D34*
X181210000Y-119390000D02*
X180800000Y-119800000D01*
X181210000Y-118860000D02*
X181210000Y-119390000D01*
D30*
G04 #@! TO.N,Net-(R1-Pad2)*
X171400000Y-118725000D02*
X169505000Y-118725000D01*
X169080000Y-118300000D02*
X167630000Y-118300000D01*
X169505000Y-118725000D02*
X169080000Y-118300000D01*
D28*
G04 #@! TO.N,Net-(R2-Pad2)*
X176825000Y-121325000D02*
X176400000Y-121750000D01*
X178600000Y-121325000D02*
X176825000Y-121325000D01*
X176625000Y-121975000D02*
X176400000Y-121750000D01*
X178600000Y-121975000D02*
X176625000Y-121975000D01*
D34*
X174720000Y-129600000D02*
X174720000Y-125200000D01*
X174720000Y-125200000D02*
X176890000Y-123030000D01*
X176625000Y-122765000D02*
X176625000Y-121975000D01*
X176890000Y-123030000D02*
X176625000Y-122765000D01*
D32*
G04 #@! TO.N,Net-(R3-Pad2)*
X178600000Y-117425000D02*
X176625000Y-117425000D01*
X178525000Y-118075000D02*
X178450000Y-118000000D01*
X178600000Y-118075000D02*
X178525000Y-118075000D01*
X178450000Y-118000000D02*
X177619998Y-118000000D01*
X177619998Y-118000000D02*
X176200000Y-118000000D01*
D31*
X176200000Y-104280000D02*
X175920000Y-104000000D01*
D27*
X176330000Y-117400000D02*
X176330000Y-103680000D01*
D32*
G04 #@! TO.N,/Controller/pmwb*
X160860000Y-110480000D02*
X160830000Y-110450000D01*
D30*
X171400000Y-116125000D02*
X170485000Y-116125000D01*
X165440000Y-110550000D02*
X165440000Y-110480000D01*
X170100000Y-115210000D02*
X165440000Y-110550000D01*
D32*
X165440000Y-110480000D02*
X160860000Y-110480000D01*
X165570000Y-110480000D02*
X165440000Y-110480000D01*
D30*
X170100000Y-115740000D02*
X170100000Y-115210000D01*
X170100000Y-115740000D02*
X170485000Y-116125000D01*
G04 #@! TO.N,/Controller/ain1*
X162390000Y-118070000D02*
X161465000Y-118070000D01*
X164270000Y-121290000D02*
X163400000Y-120420000D01*
X163040000Y-118070000D02*
X160830000Y-118070000D01*
X165350000Y-121290000D02*
X164270000Y-121290000D01*
X166780000Y-122720000D02*
X165350000Y-121290000D01*
X168070000Y-122720000D02*
X166780000Y-122720000D01*
X168750000Y-122040000D02*
X168070000Y-122720000D01*
X163400000Y-118430000D02*
X163040000Y-118070000D01*
X168750000Y-121220000D02*
X168750000Y-122040000D01*
X163400000Y-120420000D02*
X163400000Y-118430000D01*
X169945000Y-120025000D02*
X168750000Y-121220000D01*
X169945000Y-120025000D02*
X171400000Y-120025000D01*
G04 #@! TO.N,/Controller/ain2*
X160860000Y-120640000D02*
X160830000Y-120610000D01*
X162590000Y-120610000D02*
X160830000Y-120610000D01*
X165320000Y-123340000D02*
X162590000Y-120610000D01*
X169570000Y-122070000D02*
X168300000Y-123340000D01*
X169570000Y-121330000D02*
X169570000Y-122070000D01*
X170225000Y-120675000D02*
X169570000Y-121330000D01*
X168300000Y-123340000D02*
X165320000Y-123340000D01*
X170225000Y-120675000D02*
X171400000Y-120675000D01*
G04 #@! TO.N,/Controller/pwma*
X161495000Y-123180000D02*
X161465000Y-123150000D01*
X170245000Y-121325000D02*
X171400000Y-121325000D01*
X170034990Y-122375010D02*
X170034990Y-121535010D01*
X170034990Y-121535010D02*
X170245000Y-121325000D01*
X168270000Y-124140000D02*
X170034990Y-122375010D01*
X164530000Y-124140000D02*
X168270000Y-124140000D01*
X163540000Y-123150000D02*
X164530000Y-124140000D01*
X160830000Y-123150000D02*
X163540000Y-123150000D01*
D32*
G04 #@! TO.N,/Controller/bin2*
X161495000Y-113020000D02*
X161465000Y-112990000D01*
X166170000Y-113020000D02*
X161495000Y-113020000D01*
D30*
X171400000Y-116775000D02*
X170545000Y-116775000D01*
X166790000Y-113020000D02*
X166170000Y-113020000D01*
X170524998Y-116775000D02*
X170545000Y-116775000D01*
X166790000Y-113040002D02*
X170524998Y-116775000D01*
X166790000Y-113020000D02*
X166790000Y-113040002D01*
G04 #@! TO.N,/Controller/bin1*
X168380000Y-115530000D02*
X160830000Y-115530000D01*
X170275000Y-117425000D02*
X168380000Y-115530000D01*
X170275000Y-117425000D02*
X171400000Y-117425000D01*
D35*
G04 #@! TO.N,Net-(U3-Pad1)*
X104844780Y-143434240D02*
X104819380Y-143408840D01*
D33*
X124816800Y-143434240D02*
X104844780Y-143434240D01*
D32*
G04 #@! TO.N,Net-(J3-Pad3)*
X134620000Y-84410000D02*
X139810000Y-84410000D01*
X129400000Y-89630000D02*
X134620000Y-84410000D01*
X129400000Y-115800000D02*
X129400000Y-89630000D01*
X141860000Y-128260000D02*
X129400000Y-115800000D01*
X141890000Y-128230000D02*
X141860000Y-128260000D01*
X145590000Y-128230000D02*
X141890000Y-128230000D01*
G04 #@! TO.N,Net-(J3-Pad5)*
X136600000Y-86950000D02*
X139810000Y-86950000D01*
X132400000Y-91150000D02*
X136600000Y-86950000D01*
X132400000Y-115200000D02*
X132400000Y-91150000D01*
X142920000Y-125720000D02*
X132400000Y-115200000D01*
X142950000Y-125690000D02*
X142920000Y-125720000D01*
X144955000Y-125690000D02*
X142950000Y-125690000D01*
G04 #@! TO.N,Net-(J3-Pad7)*
X136520000Y-89490000D02*
X139810000Y-89490000D01*
X134800000Y-91210000D02*
X136520000Y-89490000D01*
X134800000Y-114200000D02*
X134800000Y-91210000D01*
X146375000Y-123180000D02*
X143780000Y-123180000D01*
X143750000Y-123150000D02*
X134800000Y-114200000D01*
X145590000Y-123150000D02*
X143750000Y-123150000D01*
G04 #@! TO.N,Net-(J4-Pad32)*
X154650320Y-143250320D02*
X157400000Y-146000000D01*
D36*
X157400000Y-146000000D02*
X160690000Y-146000000D01*
X164670000Y-142020000D02*
X173180000Y-142020000D01*
X160690000Y-146000000D02*
X164670000Y-142020000D01*
D32*
X154650320Y-139685540D02*
X153230320Y-138265540D01*
X154650320Y-143250320D02*
X154650320Y-139685540D01*
G04 #@! TO.N,Net-(J4-Pad31)*
X173120000Y-143400000D02*
X173250000Y-143270000D01*
D36*
X150600000Y-146000000D02*
X152150000Y-147550000D01*
X152150000Y-147550000D02*
X165540000Y-147550000D01*
X169800000Y-143290000D02*
X173180000Y-143290000D01*
X165540000Y-147550000D02*
X169800000Y-143290000D01*
D32*
X150600000Y-140809500D02*
X150636980Y-140772520D01*
X150600000Y-146000000D02*
X150600000Y-140809500D01*
D29*
G04 #@! TO.N,Net-(J4-Pad18)*
X171040000Y-138210000D02*
X173180000Y-138210000D01*
X166170000Y-133340000D02*
X171040000Y-138210000D01*
X160860000Y-133340000D02*
X160830000Y-133310000D01*
X166170000Y-133340000D02*
X160860000Y-133340000D01*
D32*
G04 #@! TO.N,Net-(J5-Pad7)*
X177230000Y-139380000D02*
X177150000Y-139460000D01*
D28*
G04 #@! TO.N,Net-(J3-Pad12)*
X142350000Y-95330000D02*
X142350000Y-94570000D01*
D32*
X137200000Y-100480000D02*
X142350000Y-95330000D01*
X145590000Y-120610000D02*
X144200000Y-120610000D01*
X137200000Y-100480000D02*
X137200000Y-115060000D01*
X142750000Y-120610000D02*
X144955000Y-120610000D01*
X137200000Y-115060000D02*
X142750000Y-120610000D01*
D27*
G04 #@! TO.N,Net-(J6-Pad2)*
X204326220Y-91349860D02*
X199479860Y-91349860D01*
X184140000Y-76010000D02*
X184140000Y-69850000D01*
X199479860Y-91349860D02*
X184140000Y-76010000D01*
G04 #@! TO.N,/Controller/Bat*
X172800000Y-107400000D02*
X174000000Y-108600000D01*
D28*
X171400000Y-114825000D02*
X173425000Y-114825000D01*
D27*
X176370000Y-96490000D02*
X174510000Y-96490000D01*
X174510000Y-96490000D02*
X173800000Y-97200000D01*
X173800000Y-97200000D02*
X173800000Y-99800000D01*
X170000000Y-103600000D02*
X170000000Y-107400000D01*
X173800000Y-99800000D02*
X170000000Y-103600000D01*
X172800000Y-107400000D02*
X171360000Y-107400000D01*
X171360000Y-107400000D02*
X167600000Y-107400000D01*
X174000000Y-108600000D02*
X174000000Y-111180000D01*
D28*
X171400000Y-115475000D02*
X173435000Y-115475000D01*
D27*
X171237500Y-111200000D02*
X173730000Y-111200000D01*
D28*
X171400000Y-121975000D02*
X172865000Y-121975000D01*
X172865000Y-121975000D02*
X173310000Y-121530000D01*
D31*
X173310000Y-121530000D02*
X173310000Y-120060000D01*
D34*
X173310000Y-111620000D02*
X173730000Y-111200000D01*
X173310000Y-120060000D02*
X173310000Y-111620000D01*
D32*
X147370000Y-83040000D02*
X147370000Y-80240000D01*
D30*
G04 #@! TO.N,Net-(J4-Pad7)*
X147370000Y-85040000D02*
X147370000Y-87790000D01*
D32*
X149600000Y-83470000D02*
X149600000Y-84140000D01*
X148700000Y-85040000D02*
X147370000Y-85040000D01*
X149600000Y-84140000D02*
X148700000Y-85040000D01*
G04 #@! TD*
M02*
