G04 #@! TF.GenerationSoftware,KiCad,Pcbnew,5.1.9+dfsg1-1*
G04 #@! TF.CreationDate,2022-01-20T14:38:29+01:00*
G04 #@! TF.ProjectId,piano_pcb,7069616e-6f5f-4706-9362-2e6b69636164,rev?*
G04 #@! TF.SameCoordinates,Original*
G04 #@! TF.FileFunction,Legend,Top*
G04 #@! TF.FilePolarity,Positive*
%FSLAX46Y46*%
G04 Gerber Fmt 4.6, Leading zero omitted, Abs format (unit mm)*
G04 Created by KiCad (PCBNEW 5.1.9+dfsg1-1) date 2022-01-20 14:38:29*
%MOMM*%
%LPD*%
G01*
G04 APERTURE LIST*
%ADD10C,0.150000*%
%ADD11C,0.120000*%
%ADD12C,0.304800*%
%ADD13C,0.500000*%
%ADD14C,0.800000*%
%ADD15C,0.300000*%
G04 APERTURE END LIST*
D10*
X105594761Y-101942857D02*
X103594761Y-101942857D01*
X103594761Y-101180952D01*
X103690000Y-100990476D01*
X103785238Y-100895238D01*
X103975714Y-100800000D01*
X104261428Y-100800000D01*
X104451904Y-100895238D01*
X104547142Y-100990476D01*
X104642380Y-101180952D01*
X104642380Y-101942857D01*
X105594761Y-99942857D02*
X104261428Y-99942857D01*
X103594761Y-99942857D02*
X103690000Y-100038095D01*
X103785238Y-99942857D01*
X103690000Y-99847619D01*
X103594761Y-99942857D01*
X103785238Y-99942857D01*
X105594761Y-98133333D02*
X104547142Y-98133333D01*
X104356666Y-98228571D01*
X104261428Y-98419047D01*
X104261428Y-98800000D01*
X104356666Y-98990476D01*
X105499523Y-98133333D02*
X105594761Y-98323809D01*
X105594761Y-98800000D01*
X105499523Y-98990476D01*
X105309047Y-99085714D01*
X105118571Y-99085714D01*
X104928095Y-98990476D01*
X104832857Y-98800000D01*
X104832857Y-98323809D01*
X104737619Y-98133333D01*
X104261428Y-97180952D02*
X105594761Y-97180952D01*
X104451904Y-97180952D02*
X104356666Y-97085714D01*
X104261428Y-96895238D01*
X104261428Y-96609523D01*
X104356666Y-96419047D01*
X104547142Y-96323809D01*
X105594761Y-96323809D01*
X105594761Y-95085714D02*
X105499523Y-95276190D01*
X105404285Y-95371428D01*
X105213809Y-95466666D01*
X104642380Y-95466666D01*
X104451904Y-95371428D01*
X104356666Y-95276190D01*
X104261428Y-95085714D01*
X104261428Y-94800000D01*
X104356666Y-94609523D01*
X104451904Y-94514285D01*
X104642380Y-94419047D01*
X105213809Y-94419047D01*
X105404285Y-94514285D01*
X105499523Y-94609523D01*
X105594761Y-94800000D01*
X105594761Y-95085714D01*
X105785238Y-94038095D02*
X105785238Y-92514285D01*
X104261428Y-92038095D02*
X106261428Y-92038095D01*
X104356666Y-92038095D02*
X104261428Y-91847619D01*
X104261428Y-91466666D01*
X104356666Y-91276190D01*
X104451904Y-91180952D01*
X104642380Y-91085714D01*
X105213809Y-91085714D01*
X105404285Y-91180952D01*
X105499523Y-91276190D01*
X105594761Y-91466666D01*
X105594761Y-91847619D01*
X105499523Y-92038095D01*
X105499523Y-89371428D02*
X105594761Y-89561904D01*
X105594761Y-89942857D01*
X105499523Y-90133333D01*
X105404285Y-90228571D01*
X105213809Y-90323809D01*
X104642380Y-90323809D01*
X104451904Y-90228571D01*
X104356666Y-90133333D01*
X104261428Y-89942857D01*
X104261428Y-89561904D01*
X104356666Y-89371428D01*
X105594761Y-88514285D02*
X103594761Y-88514285D01*
X104356666Y-88514285D02*
X104261428Y-88323809D01*
X104261428Y-87942857D01*
X104356666Y-87752380D01*
X104451904Y-87657142D01*
X104642380Y-87561904D01*
X105213809Y-87561904D01*
X105404285Y-87657142D01*
X105499523Y-87752380D01*
X105594761Y-87942857D01*
X105594761Y-88323809D01*
X105499523Y-88514285D01*
D11*
G04 #@! TO.C,J3*
X138480000Y-80540000D02*
X139810000Y-80540000D01*
X138480000Y-81870000D02*
X138480000Y-80540000D01*
X141080000Y-80540000D02*
X143680000Y-80540000D01*
X141080000Y-83140000D02*
X141080000Y-80540000D01*
X138480000Y-83140000D02*
X141080000Y-83140000D01*
X143680000Y-80540000D02*
X143680000Y-95900000D01*
X138480000Y-83140000D02*
X138480000Y-95900000D01*
X138480000Y-95900000D02*
X143680000Y-95900000D01*
G04 #@! TO.C,R6*
X146635000Y-88562936D02*
X146635000Y-89017064D01*
X148105000Y-88562936D02*
X148105000Y-89017064D01*
G04 #@! TO.C,R5*
X146635000Y-83812936D02*
X146635000Y-84267064D01*
X148105000Y-83812936D02*
X148105000Y-84267064D01*
G04 #@! TO.C,C7*
X164105000Y-119291252D02*
X164105000Y-118768748D01*
X165575000Y-119291252D02*
X165575000Y-118768748D01*
G04 #@! TO.C,J6*
X182810000Y-68520000D02*
X182810000Y-71180000D01*
X185410000Y-68520000D02*
X182810000Y-68520000D01*
X185410000Y-71180000D02*
X182810000Y-71180000D01*
X185410000Y-68520000D02*
X185410000Y-71180000D01*
X186680000Y-68520000D02*
X188010000Y-68520000D01*
X188010000Y-68520000D02*
X188010000Y-69850000D01*
D12*
G04 #@! TO.C,J2*
X205418840Y-120319640D02*
X205919220Y-120319640D01*
X206419600Y-141320360D02*
X205919220Y-141320360D01*
X204921000Y-139318840D02*
X205418840Y-139318840D01*
X205418840Y-122321160D02*
X204921000Y-122321160D01*
X204921000Y-139819220D02*
X204921000Y-139318840D01*
X204921000Y-121820780D02*
X204921000Y-122321160D01*
X205418840Y-139819220D02*
X205418840Y-120319640D01*
X205919220Y-139819220D02*
X205418840Y-139819220D01*
X205919220Y-141320360D02*
X205919220Y-139819220D01*
X206419600Y-121820780D02*
X206419600Y-141320360D01*
X205919220Y-121820780D02*
X206419600Y-121820780D01*
X205919220Y-120319640D02*
X205919220Y-121820780D01*
X187920780Y-128821020D02*
X189919760Y-128821020D01*
X187420400Y-129318860D02*
X187920780Y-128821020D01*
X187420400Y-132321140D02*
X187420400Y-129318860D01*
X187920780Y-132818980D02*
X189919760Y-132818980D01*
X187420400Y-132321140D02*
X187920780Y-132818980D01*
X189919760Y-125320900D02*
X189919760Y-128821020D01*
X187920780Y-125320900D02*
X189919760Y-125320900D01*
X187420400Y-124820520D02*
X187920780Y-125320900D01*
X187420400Y-124320140D02*
X187420400Y-124820520D01*
X187420400Y-122321160D02*
X187420400Y-124320140D01*
X187920780Y-121820780D02*
X187420400Y-122321160D01*
X187920780Y-121820780D02*
X204921000Y-121820780D01*
X189919760Y-136319100D02*
X189919760Y-132818980D01*
X187920780Y-136319100D02*
X189919760Y-136319100D01*
X187420400Y-136819480D02*
X187920780Y-136319100D01*
X187420400Y-139318840D02*
X187420400Y-136819480D01*
X187920780Y-139819220D02*
X187420400Y-139318840D01*
X187920780Y-139819220D02*
X204921000Y-139819220D01*
X206170680Y-141320360D02*
X206170680Y-121820780D01*
X205919220Y-121820780D02*
X205919220Y-139819220D01*
X205670300Y-139819220D02*
X205670300Y-120319640D01*
G04 #@! TO.C,J1*
X205198840Y-96499640D02*
X205699220Y-96499640D01*
X206199600Y-117500360D02*
X205699220Y-117500360D01*
X204701000Y-115498840D02*
X205198840Y-115498840D01*
X205198840Y-98501160D02*
X204701000Y-98501160D01*
X204701000Y-115999220D02*
X204701000Y-115498840D01*
X204701000Y-98000780D02*
X204701000Y-98501160D01*
X205198840Y-115999220D02*
X205198840Y-96499640D01*
X205699220Y-115999220D02*
X205198840Y-115999220D01*
X205699220Y-117500360D02*
X205699220Y-115999220D01*
X206199600Y-98000780D02*
X206199600Y-117500360D01*
X205699220Y-98000780D02*
X206199600Y-98000780D01*
X205699220Y-96499640D02*
X205699220Y-98000780D01*
X187700780Y-105001020D02*
X189699760Y-105001020D01*
X187200400Y-105498860D02*
X187700780Y-105001020D01*
X187200400Y-108501140D02*
X187200400Y-105498860D01*
X187700780Y-108998980D02*
X189699760Y-108998980D01*
X187200400Y-108501140D02*
X187700780Y-108998980D01*
X189699760Y-101500900D02*
X189699760Y-105001020D01*
X187700780Y-101500900D02*
X189699760Y-101500900D01*
X187200400Y-101000520D02*
X187700780Y-101500900D01*
X187200400Y-100500140D02*
X187200400Y-101000520D01*
X187200400Y-98501160D02*
X187200400Y-100500140D01*
X187700780Y-98000780D02*
X187200400Y-98501160D01*
X187700780Y-98000780D02*
X204701000Y-98000780D01*
X189699760Y-112499100D02*
X189699760Y-108998980D01*
X187700780Y-112499100D02*
X189699760Y-112499100D01*
X187200400Y-112999480D02*
X187700780Y-112499100D01*
X187200400Y-115498840D02*
X187200400Y-112999480D01*
X187700780Y-115999220D02*
X187200400Y-115498840D01*
X187700780Y-115999220D02*
X204701000Y-115999220D01*
X205950680Y-117500360D02*
X205950680Y-98000780D01*
X205699220Y-98000780D02*
X205699220Y-115999220D01*
X205450300Y-115999220D02*
X205450300Y-96499640D01*
D13*
G04 #@! TO.C,U2*
X206492840Y-73856880D02*
X167493680Y-73864500D01*
X206561420Y-93638400D02*
X167557180Y-93633320D01*
X206574120Y-93590140D02*
X206574120Y-73785760D01*
X167442880Y-73836560D02*
X167506380Y-93648560D01*
D11*
G04 #@! TO.C,C4*
X184101252Y-138020000D02*
X182678748Y-138020000D01*
X184101252Y-140740000D02*
X182678748Y-140740000D01*
G04 #@! TO.C,J4*
X148155400Y-135885560D02*
X158267140Y-135870320D01*
X148152860Y-142443840D02*
X148155400Y-135885560D01*
X158274760Y-142443840D02*
X148152860Y-142443840D01*
X158287460Y-135862700D02*
X158274760Y-142443840D01*
G04 #@! TO.C,TP2*
X158600000Y-146000000D02*
G75*
G03*
X158600000Y-146000000I-1200000J0D01*
G01*
G04 #@! TO.C,TP1*
X151800000Y-146000000D02*
G75*
G03*
X151800000Y-146000000I-1200000J0D01*
G01*
G04 #@! TO.C,C1*
X174985000Y-98750000D02*
X183220000Y-98750000D01*
X174985000Y-94230000D02*
X174985000Y-98750000D01*
X183220000Y-94230000D02*
X174985000Y-94230000D01*
G04 #@! TO.C,C2*
X185360000Y-118911252D02*
X185360000Y-117488748D01*
X182640000Y-118911252D02*
X182640000Y-117488748D01*
G04 #@! TO.C,C3*
X170461252Y-110465000D02*
X169938748Y-110465000D01*
X170461252Y-111935000D02*
X169938748Y-111935000D01*
G04 #@! TO.C,C5*
X162111252Y-94160000D02*
X160688748Y-94160000D01*
X162111252Y-91440000D02*
X160688748Y-91440000D01*
G04 #@! TO.C,C6*
X141130000Y-104351252D02*
X141130000Y-102928748D01*
X138410000Y-104351252D02*
X138410000Y-102928748D01*
G04 #@! TO.C,J5*
X173365000Y-137580000D02*
X173365000Y-137515000D01*
X176895000Y-137580000D02*
X176895000Y-137515000D01*
X173365000Y-143985000D02*
X173365000Y-143920000D01*
X176895000Y-143985000D02*
X176895000Y-143920000D01*
X178220000Y-143920000D02*
X176895000Y-143920000D01*
X176895000Y-137515000D02*
X173365000Y-137515000D01*
X176895000Y-143985000D02*
X173365000Y-143985000D01*
G04 #@! TO.C,R1*
X168315000Y-119247064D02*
X168315000Y-118792936D01*
X166845000Y-119247064D02*
X166845000Y-118792936D01*
G04 #@! TO.C,R2*
X176480000Y-129600000D02*
X176220000Y-129600000D01*
X176480000Y-132920000D02*
X183120000Y-132920000D01*
X176480000Y-126280000D02*
X176480000Y-132920000D01*
X183120000Y-126280000D02*
X176480000Y-126280000D01*
X183120000Y-132920000D02*
X183120000Y-126280000D01*
G04 #@! TO.C,R3*
X184320000Y-107320000D02*
X184320000Y-100680000D01*
X184320000Y-100680000D02*
X177680000Y-100680000D01*
X177680000Y-100680000D02*
X177680000Y-107320000D01*
X177680000Y-107320000D02*
X184320000Y-107320000D01*
X177680000Y-104000000D02*
X177420000Y-104000000D01*
D10*
G04 #@! TO.C,U1*
X177875000Y-122725000D02*
X177875000Y-122500000D01*
X172125000Y-122725000D02*
X172125000Y-122425000D01*
X172125000Y-114075000D02*
X172125000Y-114375000D01*
X177875000Y-114075000D02*
X177875000Y-114375000D01*
X177875000Y-122725000D02*
X172125000Y-122725000D01*
X177875000Y-114075000D02*
X172125000Y-114075000D01*
X177875000Y-122500000D02*
X179475000Y-122500000D01*
D14*
G04 #@! TO.C,U3*
X94781300Y-146042820D02*
X94766060Y-68006400D01*
X95136900Y-146319680D02*
X135136820Y-146306980D01*
X135113960Y-146291740D02*
X135098720Y-68255320D01*
X95152140Y-68176580D02*
X135152060Y-68163880D01*
D11*
G04 #@! TO.C,U4*
X168120000Y-99300000D02*
X171720000Y-99300000D01*
X168081522Y-99288478D02*
G75*
G02*
X169920000Y-94850000I1838478J1838478D01*
G01*
X171758478Y-99288478D02*
G75*
G03*
X169920000Y-94850000I-1838478J1838478D01*
G01*
G04 #@! TO.C,J3*
D10*
X140746666Y-78992380D02*
X140746666Y-79706666D01*
X140699047Y-79849523D01*
X140603809Y-79944761D01*
X140460952Y-79992380D01*
X140365714Y-79992380D01*
X141127619Y-78992380D02*
X141746666Y-78992380D01*
X141413333Y-79373333D01*
X141556190Y-79373333D01*
X141651428Y-79420952D01*
X141699047Y-79468571D01*
X141746666Y-79563809D01*
X141746666Y-79801904D01*
X141699047Y-79897142D01*
X141651428Y-79944761D01*
X141556190Y-79992380D01*
X141270476Y-79992380D01*
X141175238Y-79944761D01*
X141127619Y-79897142D01*
G04 #@! TO.C,R6*
X149472380Y-88956666D02*
X148996190Y-89290000D01*
X149472380Y-89528095D02*
X148472380Y-89528095D01*
X148472380Y-89147142D01*
X148520000Y-89051904D01*
X148567619Y-89004285D01*
X148662857Y-88956666D01*
X148805714Y-88956666D01*
X148900952Y-89004285D01*
X148948571Y-89051904D01*
X148996190Y-89147142D01*
X148996190Y-89528095D01*
X148472380Y-88099523D02*
X148472380Y-88290000D01*
X148520000Y-88385238D01*
X148567619Y-88432857D01*
X148710476Y-88528095D01*
X148900952Y-88575714D01*
X149281904Y-88575714D01*
X149377142Y-88528095D01*
X149424761Y-88480476D01*
X149472380Y-88385238D01*
X149472380Y-88194761D01*
X149424761Y-88099523D01*
X149377142Y-88051904D01*
X149281904Y-88004285D01*
X149043809Y-88004285D01*
X148948571Y-88051904D01*
X148900952Y-88099523D01*
X148853333Y-88194761D01*
X148853333Y-88385238D01*
X148900952Y-88480476D01*
X148948571Y-88528095D01*
X149043809Y-88575714D01*
G04 #@! TO.C,R5*
X149472380Y-84206666D02*
X148996190Y-84540000D01*
X149472380Y-84778095D02*
X148472380Y-84778095D01*
X148472380Y-84397142D01*
X148520000Y-84301904D01*
X148567619Y-84254285D01*
X148662857Y-84206666D01*
X148805714Y-84206666D01*
X148900952Y-84254285D01*
X148948571Y-84301904D01*
X148996190Y-84397142D01*
X148996190Y-84778095D01*
X148472380Y-83301904D02*
X148472380Y-83778095D01*
X148948571Y-83825714D01*
X148900952Y-83778095D01*
X148853333Y-83682857D01*
X148853333Y-83444761D01*
X148900952Y-83349523D01*
X148948571Y-83301904D01*
X149043809Y-83254285D01*
X149281904Y-83254285D01*
X149377142Y-83301904D01*
X149424761Y-83349523D01*
X149472380Y-83444761D01*
X149472380Y-83682857D01*
X149424761Y-83778095D01*
X149377142Y-83825714D01*
G04 #@! TO.C,C7*
X163517142Y-119196666D02*
X163564761Y-119244285D01*
X163612380Y-119387142D01*
X163612380Y-119482380D01*
X163564761Y-119625238D01*
X163469523Y-119720476D01*
X163374285Y-119768095D01*
X163183809Y-119815714D01*
X163040952Y-119815714D01*
X162850476Y-119768095D01*
X162755238Y-119720476D01*
X162660000Y-119625238D01*
X162612380Y-119482380D01*
X162612380Y-119387142D01*
X162660000Y-119244285D01*
X162707619Y-119196666D01*
X162612380Y-118863333D02*
X162612380Y-118196666D01*
X163612380Y-118625238D01*
G04 #@! TO.C,J6*
X188462380Y-70183333D02*
X189176666Y-70183333D01*
X189319523Y-70230952D01*
X189414761Y-70326190D01*
X189462380Y-70469047D01*
X189462380Y-70564285D01*
X188462380Y-69278571D02*
X188462380Y-69469047D01*
X188510000Y-69564285D01*
X188557619Y-69611904D01*
X188700476Y-69707142D01*
X188890952Y-69754761D01*
X189271904Y-69754761D01*
X189367142Y-69707142D01*
X189414761Y-69659523D01*
X189462380Y-69564285D01*
X189462380Y-69373809D01*
X189414761Y-69278571D01*
X189367142Y-69230952D01*
X189271904Y-69183333D01*
X189033809Y-69183333D01*
X188938571Y-69230952D01*
X188890952Y-69278571D01*
X188843333Y-69373809D01*
X188843333Y-69564285D01*
X188890952Y-69659523D01*
X188938571Y-69707142D01*
X189033809Y-69754761D01*
G04 #@! TO.C,J2*
D15*
X207098571Y-131320000D02*
X208170000Y-131320000D01*
X208384285Y-131391428D01*
X208527142Y-131534285D01*
X208598571Y-131748571D01*
X208598571Y-131891428D01*
X207241428Y-130677142D02*
X207170000Y-130605714D01*
X207098571Y-130462857D01*
X207098571Y-130105714D01*
X207170000Y-129962857D01*
X207241428Y-129891428D01*
X207384285Y-129820000D01*
X207527142Y-129820000D01*
X207741428Y-129891428D01*
X208598571Y-130748571D01*
X208598571Y-129820000D01*
X186598571Y-133998571D02*
X185098571Y-133998571D01*
X185098571Y-133641428D01*
X185170000Y-133427142D01*
X185312857Y-133284285D01*
X185455714Y-133212857D01*
X185741428Y-133141428D01*
X185955714Y-133141428D01*
X186241428Y-133212857D01*
X186384285Y-133284285D01*
X186527142Y-133427142D01*
X186598571Y-133641428D01*
X186598571Y-133998571D01*
X186598571Y-132498571D02*
X185098571Y-132498571D01*
X186598571Y-131784285D02*
X185098571Y-131784285D01*
X186598571Y-130927142D01*
X185098571Y-130927142D01*
X186027142Y-130212857D02*
X186027142Y-129070000D01*
X185098571Y-127712857D02*
X185098571Y-127998571D01*
X185170000Y-128141428D01*
X185241428Y-128212857D01*
X185455714Y-128355714D01*
X185741428Y-128427142D01*
X186312857Y-128427142D01*
X186455714Y-128355714D01*
X186527142Y-128284285D01*
X186598571Y-128141428D01*
X186598571Y-127855714D01*
X186527142Y-127712857D01*
X186455714Y-127641428D01*
X186312857Y-127570000D01*
X185955714Y-127570000D01*
X185812857Y-127641428D01*
X185741428Y-127712857D01*
X185670000Y-127855714D01*
X185670000Y-128141428D01*
X185741428Y-128284285D01*
X185812857Y-128355714D01*
X185955714Y-128427142D01*
G04 #@! TO.C,J1*
X206878571Y-107500000D02*
X207950000Y-107500000D01*
X208164285Y-107571428D01*
X208307142Y-107714285D01*
X208378571Y-107928571D01*
X208378571Y-108071428D01*
X208378571Y-106000000D02*
X208378571Y-106857142D01*
X208378571Y-106428571D02*
X206878571Y-106428571D01*
X207092857Y-106571428D01*
X207235714Y-106714285D01*
X207307142Y-106857142D01*
X186378571Y-110178571D02*
X184878571Y-110178571D01*
X184878571Y-109821428D01*
X184950000Y-109607142D01*
X185092857Y-109464285D01*
X185235714Y-109392857D01*
X185521428Y-109321428D01*
X185735714Y-109321428D01*
X186021428Y-109392857D01*
X186164285Y-109464285D01*
X186307142Y-109607142D01*
X186378571Y-109821428D01*
X186378571Y-110178571D01*
X186378571Y-108678571D02*
X184878571Y-108678571D01*
X186378571Y-107964285D02*
X184878571Y-107964285D01*
X186378571Y-107107142D01*
X184878571Y-107107142D01*
X185807142Y-106392857D02*
X185807142Y-105250000D01*
X184878571Y-103892857D02*
X184878571Y-104178571D01*
X184950000Y-104321428D01*
X185021428Y-104392857D01*
X185235714Y-104535714D01*
X185521428Y-104607142D01*
X186092857Y-104607142D01*
X186235714Y-104535714D01*
X186307142Y-104464285D01*
X186378571Y-104321428D01*
X186378571Y-104035714D01*
X186307142Y-103892857D01*
X186235714Y-103821428D01*
X186092857Y-103750000D01*
X185735714Y-103750000D01*
X185592857Y-103821428D01*
X185521428Y-103892857D01*
X185450000Y-104035714D01*
X185450000Y-104321428D01*
X185521428Y-104464285D01*
X185592857Y-104535714D01*
X185735714Y-104607142D01*
G04 #@! TO.C,U2*
D10*
X185497295Y-81815720D02*
X185497295Y-82625244D01*
X185544914Y-82720482D01*
X185592533Y-82768101D01*
X185687771Y-82815720D01*
X185878247Y-82815720D01*
X185973485Y-82768101D01*
X186021104Y-82720482D01*
X186068723Y-82625244D01*
X186068723Y-81815720D01*
X186497295Y-81910959D02*
X186544914Y-81863340D01*
X186640152Y-81815720D01*
X186878247Y-81815720D01*
X186973485Y-81863340D01*
X187021104Y-81910959D01*
X187068723Y-82006197D01*
X187068723Y-82101435D01*
X187021104Y-82244292D01*
X186449676Y-82815720D01*
X187068723Y-82815720D01*
X172333424Y-78189811D02*
X172476281Y-78237430D01*
X172523900Y-78285049D01*
X172571520Y-78380287D01*
X172571520Y-78523144D01*
X172523900Y-78618382D01*
X172476281Y-78666001D01*
X172381043Y-78713620D01*
X172000091Y-78713620D01*
X172000091Y-77713620D01*
X172333424Y-77713620D01*
X172428662Y-77761240D01*
X172476281Y-77808859D01*
X172523900Y-77904097D01*
X172523900Y-77999335D01*
X172476281Y-78094573D01*
X172428662Y-78142192D01*
X172333424Y-78189811D01*
X172000091Y-78189811D01*
X172952472Y-78427906D02*
X173428662Y-78427906D01*
X172857234Y-78713620D02*
X173190567Y-77713620D01*
X173523900Y-78713620D01*
X173714377Y-77713620D02*
X174285805Y-77713620D01*
X174000091Y-78713620D02*
X174000091Y-77713620D01*
X200533810Y-88727060D02*
X200867143Y-89727060D01*
X201200477Y-88727060D01*
X201533810Y-89727060D02*
X201533810Y-89060394D01*
X201533810Y-88727060D02*
X201486191Y-88774680D01*
X201533810Y-88822299D01*
X201581429Y-88774680D01*
X201533810Y-88727060D01*
X201533810Y-88822299D01*
X202010000Y-89060394D02*
X202010000Y-89727060D01*
X202010000Y-89155632D02*
X202057620Y-89108013D01*
X202152858Y-89060394D01*
X202295715Y-89060394D01*
X202390953Y-89108013D01*
X202438572Y-89203251D01*
X202438572Y-89727060D01*
G04 #@! TO.C,C4*
X183223333Y-142037142D02*
X183175714Y-142084761D01*
X183032857Y-142132380D01*
X182937619Y-142132380D01*
X182794761Y-142084761D01*
X182699523Y-141989523D01*
X182651904Y-141894285D01*
X182604285Y-141703809D01*
X182604285Y-141560952D01*
X182651904Y-141370476D01*
X182699523Y-141275238D01*
X182794761Y-141180000D01*
X182937619Y-141132380D01*
X183032857Y-141132380D01*
X183175714Y-141180000D01*
X183223333Y-141227619D01*
X184080476Y-141465714D02*
X184080476Y-142132380D01*
X183842380Y-141084761D02*
X183604285Y-141799047D01*
X184223333Y-141799047D01*
G04 #@! TO.C,TP2*
X158850380Y-147261904D02*
X158850380Y-146690476D01*
X159850380Y-146976190D02*
X158850380Y-146976190D01*
X159850380Y-146357142D02*
X158850380Y-146357142D01*
X158850380Y-145976190D01*
X158898000Y-145880952D01*
X158945619Y-145833333D01*
X159040857Y-145785714D01*
X159183714Y-145785714D01*
X159278952Y-145833333D01*
X159326571Y-145880952D01*
X159374190Y-145976190D01*
X159374190Y-146357142D01*
X158945619Y-145404761D02*
X158898000Y-145357142D01*
X158850380Y-145261904D01*
X158850380Y-145023809D01*
X158898000Y-144928571D01*
X158945619Y-144880952D01*
X159040857Y-144833333D01*
X159136095Y-144833333D01*
X159278952Y-144880952D01*
X159850380Y-145452380D01*
X159850380Y-144833333D01*
G04 #@! TO.C,TP1*
X152050380Y-147261904D02*
X152050380Y-146690476D01*
X153050380Y-146976190D02*
X152050380Y-146976190D01*
X153050380Y-146357142D02*
X152050380Y-146357142D01*
X152050380Y-145976190D01*
X152098000Y-145880952D01*
X152145619Y-145833333D01*
X152240857Y-145785714D01*
X152383714Y-145785714D01*
X152478952Y-145833333D01*
X152526571Y-145880952D01*
X152574190Y-145976190D01*
X152574190Y-146357142D01*
X153050380Y-144833333D02*
X153050380Y-145404761D01*
X153050380Y-145119047D02*
X152050380Y-145119047D01*
X152193238Y-145214285D01*
X152288476Y-145309523D01*
X152336095Y-145404761D01*
G04 #@! TO.C,C1*
X179403333Y-93747142D02*
X179355714Y-93794761D01*
X179212857Y-93842380D01*
X179117619Y-93842380D01*
X178974761Y-93794761D01*
X178879523Y-93699523D01*
X178831904Y-93604285D01*
X178784285Y-93413809D01*
X178784285Y-93270952D01*
X178831904Y-93080476D01*
X178879523Y-92985238D01*
X178974761Y-92890000D01*
X179117619Y-92842380D01*
X179212857Y-92842380D01*
X179355714Y-92890000D01*
X179403333Y-92937619D01*
X180355714Y-93842380D02*
X179784285Y-93842380D01*
X180070000Y-93842380D02*
X180070000Y-92842380D01*
X179974761Y-92985238D01*
X179879523Y-93080476D01*
X179784285Y-93128095D01*
G04 #@! TO.C,C2*
X182057142Y-118366666D02*
X182104761Y-118414285D01*
X182152380Y-118557142D01*
X182152380Y-118652380D01*
X182104761Y-118795238D01*
X182009523Y-118890476D01*
X181914285Y-118938095D01*
X181723809Y-118985714D01*
X181580952Y-118985714D01*
X181390476Y-118938095D01*
X181295238Y-118890476D01*
X181200000Y-118795238D01*
X181152380Y-118652380D01*
X181152380Y-118557142D01*
X181200000Y-118414285D01*
X181247619Y-118366666D01*
X181247619Y-117985714D02*
X181200000Y-117938095D01*
X181152380Y-117842857D01*
X181152380Y-117604761D01*
X181200000Y-117509523D01*
X181247619Y-117461904D01*
X181342857Y-117414285D01*
X181438095Y-117414285D01*
X181580952Y-117461904D01*
X182152380Y-118033333D01*
X182152380Y-117414285D01*
G04 #@! TO.C,C3*
X170033333Y-113237142D02*
X169985714Y-113284761D01*
X169842857Y-113332380D01*
X169747619Y-113332380D01*
X169604761Y-113284761D01*
X169509523Y-113189523D01*
X169461904Y-113094285D01*
X169414285Y-112903809D01*
X169414285Y-112760952D01*
X169461904Y-112570476D01*
X169509523Y-112475238D01*
X169604761Y-112380000D01*
X169747619Y-112332380D01*
X169842857Y-112332380D01*
X169985714Y-112380000D01*
X170033333Y-112427619D01*
X170366666Y-112332380D02*
X170985714Y-112332380D01*
X170652380Y-112713333D01*
X170795238Y-112713333D01*
X170890476Y-112760952D01*
X170938095Y-112808571D01*
X170985714Y-112903809D01*
X170985714Y-113141904D01*
X170938095Y-113237142D01*
X170890476Y-113284761D01*
X170795238Y-113332380D01*
X170509523Y-113332380D01*
X170414285Y-113284761D01*
X170366666Y-113237142D01*
G04 #@! TO.C,C5*
X161233333Y-95457142D02*
X161185714Y-95504761D01*
X161042857Y-95552380D01*
X160947619Y-95552380D01*
X160804761Y-95504761D01*
X160709523Y-95409523D01*
X160661904Y-95314285D01*
X160614285Y-95123809D01*
X160614285Y-94980952D01*
X160661904Y-94790476D01*
X160709523Y-94695238D01*
X160804761Y-94600000D01*
X160947619Y-94552380D01*
X161042857Y-94552380D01*
X161185714Y-94600000D01*
X161233333Y-94647619D01*
X162138095Y-94552380D02*
X161661904Y-94552380D01*
X161614285Y-95028571D01*
X161661904Y-94980952D01*
X161757142Y-94933333D01*
X161995238Y-94933333D01*
X162090476Y-94980952D01*
X162138095Y-95028571D01*
X162185714Y-95123809D01*
X162185714Y-95361904D01*
X162138095Y-95457142D01*
X162090476Y-95504761D01*
X161995238Y-95552380D01*
X161757142Y-95552380D01*
X161661904Y-95504761D01*
X161614285Y-95457142D01*
G04 #@! TO.C,C6*
X137827142Y-103806666D02*
X137874761Y-103854285D01*
X137922380Y-103997142D01*
X137922380Y-104092380D01*
X137874761Y-104235238D01*
X137779523Y-104330476D01*
X137684285Y-104378095D01*
X137493809Y-104425714D01*
X137350952Y-104425714D01*
X137160476Y-104378095D01*
X137065238Y-104330476D01*
X136970000Y-104235238D01*
X136922380Y-104092380D01*
X136922380Y-103997142D01*
X136970000Y-103854285D01*
X137017619Y-103806666D01*
X136922380Y-102949523D02*
X136922380Y-103140000D01*
X136970000Y-103235238D01*
X137017619Y-103282857D01*
X137160476Y-103378095D01*
X137350952Y-103425714D01*
X137731904Y-103425714D01*
X137827142Y-103378095D01*
X137874761Y-103330476D01*
X137922380Y-103235238D01*
X137922380Y-103044761D01*
X137874761Y-102949523D01*
X137827142Y-102901904D01*
X137731904Y-102854285D01*
X137493809Y-102854285D01*
X137398571Y-102901904D01*
X137350952Y-102949523D01*
X137303333Y-103044761D01*
X137303333Y-103235238D01*
X137350952Y-103330476D01*
X137398571Y-103378095D01*
X137493809Y-103425714D01*
G04 #@! TO.C,H1*
X201238095Y-142212380D02*
X201238095Y-141212380D01*
X201238095Y-141688571D02*
X201809523Y-141688571D01*
X201809523Y-142212380D02*
X201809523Y-141212380D01*
X202809523Y-142212380D02*
X202238095Y-142212380D01*
X202523809Y-142212380D02*
X202523809Y-141212380D01*
X202428571Y-141355238D01*
X202333333Y-141450476D01*
X202238095Y-141498095D01*
G04 #@! TO.C,H2*
X201068095Y-66212380D02*
X201068095Y-65212380D01*
X201068095Y-65688571D02*
X201639523Y-65688571D01*
X201639523Y-66212380D02*
X201639523Y-65212380D01*
X202068095Y-65307619D02*
X202115714Y-65260000D01*
X202210952Y-65212380D01*
X202449047Y-65212380D01*
X202544285Y-65260000D01*
X202591904Y-65307619D01*
X202639523Y-65402857D01*
X202639523Y-65498095D01*
X202591904Y-65640952D01*
X202020476Y-66212380D01*
X202639523Y-66212380D01*
G04 #@! TO.C,H3*
X140238095Y-66452380D02*
X140238095Y-65452380D01*
X140238095Y-65928571D02*
X140809523Y-65928571D01*
X140809523Y-66452380D02*
X140809523Y-65452380D01*
X141190476Y-65452380D02*
X141809523Y-65452380D01*
X141476190Y-65833333D01*
X141619047Y-65833333D01*
X141714285Y-65880952D01*
X141761904Y-65928571D01*
X141809523Y-66023809D01*
X141809523Y-66261904D01*
X141761904Y-66357142D01*
X141714285Y-66404761D01*
X141619047Y-66452380D01*
X141333333Y-66452380D01*
X141238095Y-66404761D01*
X141190476Y-66357142D01*
G04 #@! TO.C,H4*
X139408095Y-142452380D02*
X139408095Y-141452380D01*
X139408095Y-141928571D02*
X139979523Y-141928571D01*
X139979523Y-142452380D02*
X139979523Y-141452380D01*
X140884285Y-141785714D02*
X140884285Y-142452380D01*
X140646190Y-141404761D02*
X140408095Y-142119047D01*
X141027142Y-142119047D01*
G04 #@! TO.C,J5*
X174796666Y-144437380D02*
X174796666Y-145151666D01*
X174749047Y-145294523D01*
X174653809Y-145389761D01*
X174510952Y-145437380D01*
X174415714Y-145437380D01*
X175749047Y-144437380D02*
X175272857Y-144437380D01*
X175225238Y-144913571D01*
X175272857Y-144865952D01*
X175368095Y-144818333D01*
X175606190Y-144818333D01*
X175701428Y-144865952D01*
X175749047Y-144913571D01*
X175796666Y-145008809D01*
X175796666Y-145246904D01*
X175749047Y-145342142D01*
X175701428Y-145389761D01*
X175606190Y-145437380D01*
X175368095Y-145437380D01*
X175272857Y-145389761D01*
X175225238Y-145342142D01*
G04 #@! TO.C,R1*
X166382380Y-119186666D02*
X165906190Y-119520000D01*
X166382380Y-119758095D02*
X165382380Y-119758095D01*
X165382380Y-119377142D01*
X165430000Y-119281904D01*
X165477619Y-119234285D01*
X165572857Y-119186666D01*
X165715714Y-119186666D01*
X165810952Y-119234285D01*
X165858571Y-119281904D01*
X165906190Y-119377142D01*
X165906190Y-119758095D01*
X166382380Y-118234285D02*
X166382380Y-118805714D01*
X166382380Y-118520000D02*
X165382380Y-118520000D01*
X165525238Y-118615238D01*
X165620476Y-118710476D01*
X165668095Y-118805714D01*
G04 #@! TO.C,R2*
X177093333Y-134372380D02*
X176760000Y-133896190D01*
X176521904Y-134372380D02*
X176521904Y-133372380D01*
X176902857Y-133372380D01*
X176998095Y-133420000D01*
X177045714Y-133467619D01*
X177093333Y-133562857D01*
X177093333Y-133705714D01*
X177045714Y-133800952D01*
X176998095Y-133848571D01*
X176902857Y-133896190D01*
X176521904Y-133896190D01*
X177474285Y-133467619D02*
X177521904Y-133420000D01*
X177617142Y-133372380D01*
X177855238Y-133372380D01*
X177950476Y-133420000D01*
X177998095Y-133467619D01*
X178045714Y-133562857D01*
X178045714Y-133658095D01*
X177998095Y-133800952D01*
X177426666Y-134372380D01*
X178045714Y-134372380D01*
G04 #@! TO.C,R3*
X178293333Y-108772380D02*
X177960000Y-108296190D01*
X177721904Y-108772380D02*
X177721904Y-107772380D01*
X178102857Y-107772380D01*
X178198095Y-107820000D01*
X178245714Y-107867619D01*
X178293333Y-107962857D01*
X178293333Y-108105714D01*
X178245714Y-108200952D01*
X178198095Y-108248571D01*
X178102857Y-108296190D01*
X177721904Y-108296190D01*
X178626666Y-107772380D02*
X179245714Y-107772380D01*
X178912380Y-108153333D01*
X179055238Y-108153333D01*
X179150476Y-108200952D01*
X179198095Y-108248571D01*
X179245714Y-108343809D01*
X179245714Y-108581904D01*
X179198095Y-108677142D01*
X179150476Y-108724761D01*
X179055238Y-108772380D01*
X178769523Y-108772380D01*
X178674285Y-108724761D01*
X178626666Y-108677142D01*
G04 #@! TO.C,U1*
X174238095Y-123102380D02*
X174238095Y-123911904D01*
X174285714Y-124007142D01*
X174333333Y-124054761D01*
X174428571Y-124102380D01*
X174619047Y-124102380D01*
X174714285Y-124054761D01*
X174761904Y-124007142D01*
X174809523Y-123911904D01*
X174809523Y-123102380D01*
X175809523Y-124102380D02*
X175238095Y-124102380D01*
X175523809Y-124102380D02*
X175523809Y-123102380D01*
X175428571Y-123245238D01*
X175333333Y-123340476D01*
X175238095Y-123388095D01*
G04 #@! TO.C,U3*
X103966960Y-116245984D02*
X104776484Y-116245984D01*
X104871722Y-116198365D01*
X104919341Y-116150746D01*
X104966960Y-116055508D01*
X104966960Y-115865032D01*
X104919341Y-115769794D01*
X104871722Y-115722175D01*
X104776484Y-115674556D01*
X103966960Y-115674556D01*
X103966960Y-115293603D02*
X103966960Y-114674556D01*
X104347913Y-115007889D01*
X104347913Y-114865032D01*
X104395532Y-114769794D01*
X104443151Y-114722175D01*
X104538389Y-114674556D01*
X104776484Y-114674556D01*
X104871722Y-114722175D01*
X104919341Y-114769794D01*
X104966960Y-114865032D01*
X104966960Y-115150746D01*
X104919341Y-115245984D01*
X104871722Y-115293603D01*
G04 #@! TO.C,U4*
X169158095Y-93342380D02*
X169158095Y-94151904D01*
X169205714Y-94247142D01*
X169253333Y-94294761D01*
X169348571Y-94342380D01*
X169539047Y-94342380D01*
X169634285Y-94294761D01*
X169681904Y-94247142D01*
X169729523Y-94151904D01*
X169729523Y-93342380D01*
X170634285Y-93675714D02*
X170634285Y-94342380D01*
X170396190Y-93294761D02*
X170158095Y-94009047D01*
X170777142Y-94009047D01*
G04 #@! TD*
M02*
