M48
; DRILL file {KiCad 5.1.9+dfsg1-1} date Thu Apr 15 14:09:10 2021
; FORMAT={-:-/ absolute / inch / decimal}
; #@! TF.CreationDate,2021-04-15T14:09:10+02:00
; #@! TF.GenerationSoftware,Kicad,Pcbnew,5.1.9+dfsg1-1
; #@! TF.FileFunction,Plated,1,2,PTH
FMAT,2
INCH
T1C0.0118
T2C0.0157
T3C0.0394
T4C0.0433
T5C0.0472
T6C0.0551
T7C0.0787
%
G90
G05
T1
X7.0186Y-2.9101
X7.0584Y-2.876
X7.0603Y-2.9481
X7.0919Y-2.9095
X7.47Y-2.755
X7.6Y-2.99
T2
X7.2025Y-2.8125
T3
X5.39Y-5.0178
X5.39Y-5.1178
X5.39Y-5.2178
X5.39Y-5.3178
X5.39Y-5.4178
X5.435Y-2.675
X5.49Y-5.0178
X5.49Y-5.1178
X5.49Y-5.2178
X5.49Y-5.3178
X5.49Y-5.4178
X5.505Y-4.01
X5.505Y-4.11
X5.535Y-2.675
X6.9814Y-4.715
X6.9814Y-4.815
X6.9814Y-4.915
X6.9814Y-5.015
X6.9814Y-5.115
X6.9814Y-5.215
X6.9814Y-5.315
X6.9814Y-5.415
X7.285Y-5.635
X7.285Y-5.735
T4
X5.44Y-2.8653
X5.44Y-3.2653
T5
X5.74Y-3.219
X5.74Y-3.719
X6.945Y-3.415
X7.145Y-3.415
X7.43Y-5.255
X7.63Y-5.255
T6
X7.404Y-3.7042
X7.404Y-4.7542
X7.5035Y-3.5081
X7.5035Y-3.9019
X7.5035Y-4.5581
X7.5035Y-4.9519
X7.6019Y-3.4097
X7.6019Y-3.705
X7.6019Y-4.0003
X7.6019Y-4.4597
X7.6019Y-4.755
X7.6019Y-5.0503
X7.9956Y-3.5081
X7.9956Y-3.9019
X7.9956Y-4.5581
X7.9956Y-4.9519
T7
X4.07Y-2.7408
X4.0722Y-5.5871
X4.8595Y-5.5881
X4.8598Y-2.7423
T0
M30
